<?xml version="1.0" encoding="UTF-8" standalone="no"?>
<svg
   xmlns:dc="http://purl.org/dc/elements/1.1/"
   xmlns:cc="http://creativecommons.org/ns#"
   xmlns:rdf="http://www.w3.org/1999/02/22-rdf-syntax-ns#"
   xmlns:svg="http://www.w3.org/2000/svg"
   xmlns="http://www.w3.org/2000/svg"
   version="1.1"
   id="svg2"
   xml:space="preserve"
   width="793.70081"
   height="1122.5197"
   viewBox="0 0 793.70081 1122.5197"><metadata
     id="metadata8"><rdf:RDF><cc:Work
         rdf:about=""><dc:format>image/svg+xml</dc:format><dc:type
           rdf:resource="http://purl.org/dc/dcmitype/StillImage" /></cc:Work></rdf:RDF></metadata><defs
     id="defs6"><clipPath
       clipPathUnits="userSpaceOnUse"
       id="clipPath80"><path
         d="m 322.7876,413.9167 -0.9728,-4.5902 c -10.9608,-0.0762 -5.1239,-1.021 -11.5464,-2.0046 -3.1586,-0.4839 -9.9051,-0.2336 -13.3875,-0.2396 l -2.3836,-4.1238 c 9.6267,-57.1371 97.918,-93.9263 149.1372,-38.0974 10.7138,11.6779 25.7616,36.3198 22.0099,58.589 l -105.2331,0.1455 -0.0745,-27.8731 66.9359,-0.2041 c -2.0186,-8.5728 -14.2994,-19.4525 -21.7163,-23.5125 -10.6336,-5.8213 -24.6211,-8.3529 -38.7836,-5.315 -12.1685,2.6101 -23.3521,9.9037 -29.1152,16.4339 -13.2086,14.9658 -10.1313,19.9899 -14.87,30.7919"
         clip-rule="evenodd"
         id="path78" /></clipPath><linearGradient
       x1="-318.76999"
       y1="-435.48001"
       x2="221.78999"
       y2="383.29999"
       gradientUnits="userSpaceOnUse"
       spreadMethod="pad"
       id="linearGradient88"><stop
         style="stop-opacity:1;stop-color:#f7a524"
         offset="0"
         id="stop82" /><stop
         style="stop-opacity:1;stop-color:#f7a524"
         offset="0.44008959"
         id="stop84" /><stop
         style="stop-opacity:1;stop-color:#ff00c6"
         offset="1"
         id="stop86" /></linearGradient><clipPath
       clipPathUnits="userSpaceOnUse"
       id="clipPath100"><path
         d="m 422.7321,348.0245 c -6.5874,7.8392 -13.2718,15.345 -20.0352,22.5343 0.9771,0.4563 1.9312,0.9388 2.8595,1.4471 7.4169,4.06 19.6977,14.9397 21.7163,23.5125 l -49.8887,0.1522 c -5.633,5.2067 -11.3043,10.2144 -17.0073,15.0114 l 0.0346,12.9136 105.2331,-0.1455 c 3.7517,-22.2692 -11.2961,-46.9111 -22.0099,-58.589 -6.4556,-7.0364 -13.5008,-12.598 -20.9024,-16.8366"
         clip-rule="evenodd"
         id="path98" /></clipPath><linearGradient
       x1="258.45999"
       y1="745.23999"
       x2="1149.5601"
       y2="-362.60999"
       gradientUnits="userSpaceOnUse"
       spreadMethod="pad"
       id="linearGradient108"><stop
         style="stop-opacity:1;stop-color:#f7a524"
         offset="0"
         id="stop102" /><stop
         style="stop-opacity:1;stop-color:#f7a524"
         offset="0.44008959"
         id="stop104" /><stop
         style="stop-opacity:1;stop-color:#ff00c6"
         offset="1"
         id="stop106" /></linearGradient><clipPath
       clipPathUnits="userSpaceOnUse"
       id="clipPath118"><path
         d="m 377.3682,395.6706 c -4.4346,4.0972 -8.8935,8.0671 -13.3728,11.9112 17.2551,0.347 33.7403,-1.6339 46.7255,-6.0684 l 9.3019,-3.8061 c 0.6432,-0.8226 -0.1219,-0.07 0.896,-0.807 0.6763,-0.4896 1.3093,-0.9414 1.9038,-1.3683 z m 48.9889,-2.8202 c 2.6889,-2.2804 4.316,-4.6437 5.8983,-9.8353 0.0975,-0.3198 0.0913,-0.334 0.2044,-0.6143 0.5162,-1.2784 -0.345,0.0476 0.4263,-0.7827 v -4.2749 c -0.7843,-0.8688 0.0896,0.5647 -0.3926,-0.7945 l -1.6696,-6.0061 c -1.2779,0.6052 -0.5071,0.2013 -1.6214,1.0797 -0.4241,0.3342 -0.6429,0.5315 -1.1101,0.889 -1.6965,1.2965 -5.6741,3.9724 -7.4928,4.5691 -0.7835,0.5055 -2.7346,1.4871 -4.8571,2.4143 4.462,4.0317 8.6363,8.8673 10.6146,13.3557"
         clip-rule="evenodd"
         id="path116" /></clipPath><linearGradient
       x1="258.45999"
       y1="745.23999"
       x2="1149.5601"
       y2="-362.60999"
       gradientUnits="userSpaceOnUse"
       spreadMethod="pad"
       id="linearGradient126"><stop
         style="stop-opacity:1;stop-color:#f7a524"
         offset="0"
         id="stop120" /><stop
         style="stop-opacity:1;stop-color:#f7a524"
         offset="0.44008959"
         id="stop122" /><stop
         style="stop-opacity:1;stop-color:#ff00c6"
         offset="1"
         id="stop124" /></linearGradient><clipPath
       clipPathUnits="userSpaceOnUse"
       id="clipPath136"><path
         d="m 374.0814,423.5766 c 4.5918,-3.8557 12.4999,-10.4111 13.6077,-15.0996 l -1.3691,1.0525 c -0.4026,0.3611 -0.5851,0.5797 -1.018,0.9941 -2.9806,2.8531 -1.906,2.0622 -5.9368,4.8234 -4.9369,3.3818 -10.3646,6.0939 -16.1071,8.2446 z"
         clip-rule="evenodd"
         id="path134" /></clipPath><linearGradient
       x1="258.45999"
       y1="745.23999"
       x2="1149.5601"
       y2="-362.60999"
       gradientUnits="userSpaceOnUse"
       spreadMethod="pad"
       id="linearGradient144"><stop
         style="stop-opacity:1;stop-color:#f7a524"
         offset="0"
         id="stop138" /><stop
         style="stop-opacity:1;stop-color:#f7a524"
         offset="0.44008959"
         id="stop140" /><stop
         style="stop-opacity:1;stop-color:#ff00c6"
         offset="1"
         id="stop142" /></linearGradient><clipPath
       clipPathUnits="userSpaceOnUse"
       id="clipPath154"><path
         d="m 363.1467,408.3129 c -0.9224,0.788 -1.8459,1.5709 -2.77,2.3487 l 0.004,1.5109 c 0.1944,-3e-4 0.3889,-0.001 0.5831,-0.004 1.131,-1.1608 1.8694,-2.1858 2.8003,-3.7698 -0.1998,-0.0329 -0.4062,-0.0615 -0.6174,-0.0861"
         clip-rule="evenodd"
         id="path152" /></clipPath><linearGradient
       x1="258.45999"
       y1="745.23999"
       x2="1149.5601"
       y2="-362.60999"
       gradientUnits="userSpaceOnUse"
       spreadMethod="pad"
       id="linearGradient162"><stop
         style="stop-opacity:1;stop-color:#f7a524"
         offset="0"
         id="stop156" /><stop
         style="stop-opacity:1;stop-color:#f7a524"
         offset="0.44008959"
         id="stop158" /><stop
         style="stop-opacity:1;stop-color:#ff00c6"
         offset="1"
         id="stop160" /></linearGradient><clipPath
       clipPathUnits="userSpaceOnUse"
       id="clipPath172"><path
         d="m 405.4757,367.6156 c -0.9205,0.9932 -1.8437,1.9729 -2.7686,2.948 0.9737,0.455 1.9244,0.9357 2.8493,1.4423 0.8947,0.4895 1.8601,1.0791 2.8698,1.7512 1.1484,0.33 2.3463,0.7135 3.8586,1.1163 -0.209,-1.9406 -1.1022,-2.8707 -1.9939,-4.1916 -1.0415,-0.0666 -1.15,-0.6806 -1.9826,-1.6024 -1.1466,-0.5621 -1.9698,-1.0381 -2.8326,-1.4638"
         clip-rule="evenodd"
         id="path170" /></clipPath><linearGradient
       x1="258.45999"
       y1="745.23999"
       x2="1149.5601"
       y2="-362.60999"
       gradientUnits="userSpaceOnUse"
       spreadMethod="pad"
       id="linearGradient180"><stop
         style="stop-opacity:1;stop-color:#f7a524"
         offset="0"
         id="stop174" /><stop
         style="stop-opacity:1;stop-color:#f7a524"
         offset="0.44008959"
         id="stop176" /><stop
         style="stop-opacity:1;stop-color:#ff00c6"
         offset="1"
         id="stop178" /></linearGradient><clipPath
       clipPathUnits="userSpaceOnUse"
       id="clipPath190"><path
         d="m 360.7611,423.595 c 7.4001,-2.4576 14.1259,-5.688 19.4074,-9.8153 1.338,-1.0454 2.0268,-1.6143 3.1093,-2.8788 0.6404,-0.7481 0.9613,-0.9802 1.556,-1.6549 0.9306,-1.0553 0.7344,-0.7829 1.2319,-1.946 -6.8885,0.8201 -14.0122,1.3133 -21.17,0.8 -0.9003,1.9553 -2.4698,4.1037 -4.5091,6.22 l 0.0247,9.2756 z"
         clip-rule="evenodd"
         id="path188" /></clipPath><linearGradient
       x1="258.45999"
       y1="745.23999"
       x2="1149.5601"
       y2="-362.60999"
       gradientUnits="userSpaceOnUse"
       spreadMethod="pad"
       id="linearGradient198"><stop
         style="stop-opacity:1;stop-color:#f7a524"
         offset="0"
         id="stop192" /><stop
         style="stop-opacity:1;stop-color:#f7a524"
         offset="0.44008959"
         id="stop194" /><stop
         style="stop-opacity:1;stop-color:#ff00c6"
         offset="1"
         id="stop196" /></linearGradient><clipPath
       clipPathUnits="userSpaceOnUse"
       id="clipPath208"><path
         d="m 156.6916,350.8064 c 2.7011,2.2969 5.7344,7.4789 8.0118,10.1843 2.613,3.1037 5.0907,6.1226 8.4373,10.093 6.3065,7.4818 12.2789,12.1859 19.6676,18.5953 5.2878,4.5865 3.9691,4.9969 5.8953,12.7579 2.1424,8.6335 9.5901,42.0296 11.4879,45.6752 l 9.8748,-38.3516 20.8437,10.4576 -19.4207,82.9111 -22.2769,-0.0734 -26.8699,-112.3413 c -3.6062,5.296 -18.0683,68.2625 -22.0286,83.5937 -2.3426,9.0669 -4.4223,19.8491 -7.5277,28.7059 l -30.0149,0.003 c 0.3702,-5.2569 28.7464,-101.0736 32.5803,-113.9857 3.52,-11.8553 7.1345,-27.1621 11.34,-38.2246"
         clip-rule="evenodd"
         id="path206" /></clipPath><linearGradient
       x1="-318.76999"
       y1="-435.48001"
       x2="221.78999"
       y2="383.29999"
       gradientUnits="userSpaceOnUse"
       spreadMethod="pad"
       id="linearGradient216"><stop
         style="stop-opacity:1;stop-color:#f7a524"
         offset="0"
         id="stop210" /><stop
         style="stop-opacity:1;stop-color:#f7a524"
         offset="0.44008959"
         id="stop212" /><stop
         style="stop-opacity:1;stop-color:#ff00c6"
         offset="1"
         id="stop214" /></linearGradient><clipPath
       clipPathUnits="userSpaceOnUse"
       id="clipPath228"><path
         d="m 224.9331,488.4273 c -9.2245,3.1147 -18.3379,5.7784 -27.3042,8.0079 l 1.5835,6.6206 22.2769,0.0734 z"
         clip-rule="evenodd"
         id="path226" /></clipPath><linearGradient
       x1="258.45999"
       y1="745.23999"
       x2="1149.5601"
       y2="-362.60999"
       gradientUnits="userSpaceOnUse"
       spreadMethod="pad"
       id="linearGradient236"><stop
         style="stop-opacity:1;stop-color:#f7a524"
         offset="0"
         id="stop230" /><stop
         style="stop-opacity:1;stop-color:#f7a524"
         offset="0.44008959"
         id="stop232" /><stop
         style="stop-opacity:1;stop-color:#ff00c6"
         offset="1"
         id="stop234" /></linearGradient><clipPath
       clipPathUnits="userSpaceOnUse"
       id="clipPath246"><path
         d="m 200.154,495.8144 c -0.8416,0.216 -1.6823,0.4283 -2.5214,0.6369 l 1.5798,6.6045 6.5103,0.0215 -0.1304,-0.1136 c -1.1109,-0.9655 -3.3358,-3.8546 -5.4383,-7.1493"
         clip-rule="evenodd"
         id="path244" /></clipPath><linearGradient
       x1="258.45999"
       y1="745.23999"
       x2="1149.5601"
       y2="-362.60999"
       gradientUnits="userSpaceOnUse"
       spreadMethod="pad"
       id="linearGradient254"><stop
         style="stop-opacity:1;stop-color:#f7a524"
         offset="0"
         id="stop248" /><stop
         style="stop-opacity:1;stop-color:#f7a524"
         offset="0.44008959"
         id="stop250" /><stop
         style="stop-opacity:1;stop-color:#ff00c6"
         offset="1"
         id="stop252" /></linearGradient><clipPath
       clipPathUnits="userSpaceOnUse"
       id="clipPath264"><path
         d="m 228.2689,375.7694 c 0.4845,3.6825 13.6939,11.7479 16.7766,15.2493 6.4599,-2.9081 -6.1946,5.7121 2.7283,-2.9775 0.3033,-0.2954 0.5074,-0.4785 0.8062,-0.7577 l 1.855,-1.5738 c 0.2219,13.104 0.485,9.7699 14.5899,18.5558 0.7092,0.4417 1.5755,0.8782 2.6255,1.393 2.0931,1.0256 3.5583,1.6821 5.5074,2.7088 10.6665,5.618 6.9208,5.6781 9.3013,3.8571 2.4837,1.8975 6.1855,3.9574 10.5846,4.6287 4.3628,4.2009 23.4317,10.4113 30.1493,11.1591 2.5427,0.0766 20.5597,4.9195 26.439,5.9176 21.8183,3.7038 43.0458,4.3356 65.12,2.8265 8.5981,-0.588 23.9307,-3.4427 30.4705,-3.066 -5.9525,0.3878 -28.3482,4.9881 -44.2225,6.2388 -46.3606,3.6524 -93.2244,0.9071 -136.3957,-13.661 -34.479,-11.6346 -70.6102,-33.4562 -92.2972,-59.4406 -5.4533,-6.5341 -17.9862,-20.6438 -21.5479,-29.2164 l 40.9561,-0.165 c 1.2107,0.4746 24.3068,33.6357 36.5536,38.3233"
         clip-rule="evenodd"
         id="path262" /></clipPath><linearGradient
       x1="-318.76999"
       y1="-435.48001"
       x2="221.78999"
       y2="383.29999"
       gradientUnits="userSpaceOnUse"
       spreadMethod="pad"
       id="linearGradient272"><stop
         style="stop-opacity:1;stop-color:#f7a524"
         offset="0"
         id="stop266" /><stop
         style="stop-opacity:1;stop-color:#f7a524"
         offset="0.44008959"
         id="stop268" /><stop
         style="stop-opacity:1;stop-color:#ff00c6"
         offset="1"
         id="stop270" /></linearGradient><clipPath
       clipPathUnits="userSpaceOnUse"
       id="clipPath284"><path
         d="m 334.9797,430.5815 c -3.9872,2.9095 -7.9806,5.7436 -11.9809,8.4683 25.6612,2.9639 51.9109,2.9347 78.0012,0.8793 15.8743,-1.2507 38.27,-5.851 44.2225,-6.2388 -6.5398,-0.3767 -21.8724,2.478 -30.4705,3.066 -22.0742,1.5091 -43.3017,0.8773 -65.12,-2.8265 -2.9716,-0.5045 -9.0442,-1.991 -14.6523,-3.3483"
         clip-rule="evenodd"
         id="path282" /></clipPath><linearGradient
       x1="258.45999"
       y1="745.23999"
       x2="1149.5601"
       y2="-362.60999"
       gradientUnits="userSpaceOnUse"
       spreadMethod="pad"
       id="linearGradient292"><stop
         style="stop-opacity:1;stop-color:#f7a524"
         offset="0"
         id="stop286" /><stop
         style="stop-opacity:1;stop-color:#f7a524"
         offset="0.44008959"
         id="stop288" /><stop
         style="stop-opacity:1;stop-color:#ff00c6"
         offset="1"
         id="stop290" /></linearGradient><clipPath
       clipPathUnits="userSpaceOnUse"
       id="clipPath302"><path
         d="m 334.9868,430.5832 c -3.9892,2.9121 -7.986,5.7359 -11.988,8.4666 6.5934,0.7613 13.2256,1.3243 19.8839,1.707 5.6872,-1.9636 10.1826,-4.2902 13.2296,-5.8144 -2.1552,-0.3082 -4.3149,-0.6449 -6.4803,-1.0126 -2.9704,-0.5043 -9.0391,-1.9899 -14.6452,-3.3466"
         clip-rule="evenodd"
         id="path300" /></clipPath><linearGradient
       x1="258.45999"
       y1="745.23999"
       x2="1149.5601"
       y2="-362.60999"
       gradientUnits="userSpaceOnUse"
       spreadMethod="pad"
       id="linearGradient310"><stop
         style="stop-opacity:1;stop-color:#f7a524"
         offset="0"
         id="stop304" /><stop
         style="stop-opacity:1;stop-color:#f7a524"
         offset="0.44008959"
         id="stop306" /><stop
         style="stop-opacity:1;stop-color:#ff00c6"
         offset="1"
         id="stop308" /></linearGradient><clipPath
       clipPathUnits="userSpaceOnUse"
       id="clipPath320"><path
         d="m 293.9471,437.5304 31.2996,5.3144 c 8.2343,17.8259 17.7738,32.5383 41.2078,37.4261 25.7646,5.3734 44.0498,-6.2104 55.3008,-21.1768 l 36.2118,-0.5635 c -19.158,50.7574 -91.679,70.7323 -140.0097,26.8265 -7.5663,-6.8734 -25.0367,-30.3375 -24.0103,-47.8267"
         clip-rule="evenodd"
         id="path318" /></clipPath><linearGradient
       x1="-318.76999"
       y1="-435.48001"
       x2="221.78999"
       y2="383.29999"
       gradientUnits="userSpaceOnUse"
       spreadMethod="pad"
       id="linearGradient328"><stop
         style="stop-opacity:1;stop-color:#f7a524"
         offset="0"
         id="stop322" /><stop
         style="stop-opacity:1;stop-color:#f7a524"
         offset="0.44008959"
         id="stop324" /><stop
         style="stop-opacity:1;stop-color:#ff00c6"
         offset="1"
         id="stop326" /></linearGradient><clipPath
       clipPathUnits="userSpaceOnUse"
       id="clipPath340"><path
         d="m 318.926,441.7716 c -7.1065,4.7262 -14.2243,9.1757 -21.3398,13.3353 5.3467,13.0334 15.1852,25.539 20.3712,30.2502 48.3307,43.9058 120.8517,23.9309 140.0097,-26.8265 l -36.2118,0.5635 c -11.251,14.9664 -29.5362,26.5502 -55.3008,21.1768 -23.434,-4.8878 -32.9735,-19.6002 -41.2078,-37.4261 z"
         clip-rule="evenodd"
         id="path338" /></clipPath><linearGradient
       x1="258.45999"
       y1="745.23999"
       x2="1149.5601"
       y2="-362.60999"
       gradientUnits="userSpaceOnUse"
       spreadMethod="pad"
       id="linearGradient348"><stop
         style="stop-opacity:1;stop-color:#f7a524"
         offset="0"
         id="stop342" /><stop
         style="stop-opacity:1;stop-color:#f7a524"
         offset="0.44008959"
         id="stop344" /><stop
         style="stop-opacity:1;stop-color:#ff00c6"
         offset="1"
         id="stop346" /></linearGradient><clipPath
       clipPathUnits="userSpaceOnUse"
       id="clipPath358"><path
         d="m 318.9546,441.7764 c -1.3909,0.9264 -2.7825,1.8414 -4.1743,2.7445 2.6428,-0.0178 5.5996,-0.047 9.0848,-0.1579 0.6888,-0.0218 1.3694,-0.0564 2.0429,-0.1009 -0.2214,-0.4705 -0.4419,-0.9425 -0.6613,-1.4173 z"
         clip-rule="evenodd"
         id="path356" /></clipPath><linearGradient
       x1="258.45999"
       y1="745.23999"
       x2="1149.5601"
       y2="-362.60999"
       gradientUnits="userSpaceOnUse"
       spreadMethod="pad"
       id="linearGradient366"><stop
         style="stop-opacity:1;stop-color:#f7a524"
         offset="0"
         id="stop360" /><stop
         style="stop-opacity:1;stop-color:#f7a524"
         offset="0.44008959"
         id="stop362" /><stop
         style="stop-opacity:1;stop-color:#ff00c6"
         offset="1"
         id="stop364" /></linearGradient><clipPath
       clipPathUnits="userSpaceOnUse"
       id="clipPath376"><path
         d="m 258.6061,427.8705 30.4379,8.941 19.0613,65.9685 -30.3355,0.2395 z"
         clip-rule="evenodd"
         id="path374" /></clipPath><linearGradient
       x1="-318.76999"
       y1="-435.48001"
       x2="221.78999"
       y2="383.29999"
       gradientUnits="userSpaceOnUse"
       spreadMethod="pad"
       id="linearGradient384"><stop
         style="stop-opacity:1;stop-color:#f7a524"
         offset="0"
         id="stop378" /><stop
         style="stop-opacity:1;stop-color:#f7a524"
         offset="0.44008959"
         id="stop380" /><stop
         style="stop-opacity:1;stop-color:#ff00c6"
         offset="1"
         id="stop382" /></linearGradient><clipPath
       clipPathUnits="userSpaceOnUse"
       id="clipPath396"><path
         d="m 294.7946,456.7139 c -8.4852,4.8733 -16.9613,9.3622 -25.4015,13.4566 l 8.3767,32.849 30.3355,-0.2395 z"
         clip-rule="evenodd"
         id="path394" /></clipPath><linearGradient
       x1="258.45999"
       y1="745.23999"
       x2="1149.5601"
       y2="-362.60999"
       gradientUnits="userSpaceOnUse"
       spreadMethod="pad"
       id="linearGradient404"><stop
         style="stop-opacity:1;stop-color:#f7a524"
         offset="0"
         id="stop398" /><stop
         style="stop-opacity:1;stop-color:#f7a524"
         offset="0.44008959"
         id="stop400" /><stop
         style="stop-opacity:1;stop-color:#ff00c6"
         offset="1"
         id="stop402" /></linearGradient><clipPath
       clipPathUnits="userSpaceOnUse"
       id="clipPath414"><path
         d="m 228.2689,375.7694 c 0.43,-5.0114 2.7754,-12.4237 3.7914,-16.9208 l 13.7264,5.7237 c 11.9073,3.3514 8.7605,0.2389 16.604,2.2048 1.3467,0.3376 2.0469,1.1951 3.2119,0.0246 1.2728,-1.2778 0.007,0.0125 1.046,-1.8391 l 1.5324,-2.7258 c 1.9494,4.7716 14.2591,46.1772 14.2781,49.9876 -2.3805,1.821 1.3652,1.7609 -9.3013,-3.8571 -1.9491,-1.0267 -3.4143,-1.6832 -5.5074,-2.7088 -1.05,-0.5148 -1.9163,-0.9513 -2.6255,-1.393 -14.1049,-8.7859 -14.368,-5.4518 -14.5899,-18.5558 l -1.855,1.5738 c -0.2988,0.2792 -0.5029,0.4623 -0.8062,0.7577 -8.9229,8.6896 3.7316,0.0694 -2.7283,2.9775 -3.0827,-3.5014 -16.2921,-11.5668 -16.7766,-15.2493"
         clip-rule="evenodd"
         id="path412" /></clipPath><linearGradient
       x1="-318.57999"
       y1="-435.48001"
       x2="221.81"
       y2="383.29999"
       gradientUnits="userSpaceOnUse"
       spreadMethod="pad"
       id="linearGradient422"><stop
         style="stop-opacity:1;stop-color:#f7a524"
         offset="0"
         id="stop416" /><stop
         style="stop-opacity:1;stop-color:#f7a524"
         offset="0.44008959"
         id="stop418" /><stop
         style="stop-opacity:1;stop-color:#ff00c6"
         offset="1"
         id="stop420" /></linearGradient><clipPath
       clipPathUnits="userSpaceOnUse"
       id="clipPath434"><path
         d="m 232.0603,358.9112 5.0363,-21.4721 24.1832,0.0717 6.9012,24.7889 -1.5324,2.7256 c -1.0386,1.8516 0.2268,0.5615 -1.046,1.8394 -1.165,1.1701 -1.8652,0.3129 -3.2119,-0.0247 -7.8435,-1.9658 -4.6967,1.1463 -16.604,-2.2051 z"
         clip-rule="evenodd"
         id="path432" /></clipPath><linearGradient
       x1="-318.76999"
       y1="-435.42001"
       x2="221.78999"
       y2="383.35999"
       gradientUnits="userSpaceOnUse"
       spreadMethod="pad"
       id="linearGradient442"><stop
         style="stop-opacity:1;stop-color:#f7a524"
         offset="0"
         id="stop436" /><stop
         style="stop-opacity:1;stop-color:#f7a524"
         offset="0.44008959"
         id="stop438" /><stop
         style="stop-opacity:1;stop-color:#ff00c6"
         offset="1"
         id="stop440" /></linearGradient><clipPath
       clipPathUnits="userSpaceOnUse"
       id="clipPath452"><path
         d="m 293.0437,416.8531 1.4536,-13.8946 2.3836,4.1238 c 3.4824,0.006 10.2289,-0.2443 13.3875,0.2396 6.4225,0.9836 0.5856,1.9284 11.5464,2.0046 l 0.9728,4.5902 0.4054,14.0955 c -6.7176,-0.7478 -25.7865,-6.9582 -30.1493,-11.1591"
         clip-rule="evenodd"
         id="path450" /></clipPath><linearGradient
       x1="-318.76999"
       y1="-435.48001"
       x2="221.78999"
       y2="383.29999"
       gradientUnits="userSpaceOnUse"
       spreadMethod="pad"
       id="linearGradient460"><stop
         style="stop-opacity:1;stop-color:#f7a524"
         offset="0"
         id="stop454" /><stop
         style="stop-opacity:1;stop-color:#f7a524"
         offset="0.44008959"
         id="stop456" /><stop
         style="stop-opacity:1;stop-color:#ff00c6"
         offset="1"
         id="stop458" /></linearGradient></defs><g
     id="g10"
     transform="matrix(1.3333333,0,0,-1.3333333,0,1122.5197)"><g
       id="g12"><g
         id="g14"><path
           d="m 307.4536,635.9947 c -0.5627,-0.5533 -0.2443,-0.2166 -1.0602,-0.5445 -0.2956,-0.1188 -0.6703,-0.2554 -0.9739,-0.364 -0.8261,-0.2954 -1.4055,-0.4601 -2.2014,-0.7398 -1.387,-0.487 -2.5886,-1.01 -3.8928,-1.7405 -1.6404,-0.9105 -2.8608,-1.3382 -4.2633,-2.3321 -1.3703,-0.9706 -2.6434,-1.8059 -3.9085,-2.7887 l -4.3625,-4.1414 c -0.5235,-0.9859 -0.5765,-0.7912 -1.2441,-1.6708 -0.4686,-0.6173 -0.7846,-1.1783 -1.1659,-1.7759 -0.9709,-1.521 -1.1035,-2.3748 -1.7728,-3.8239 -2.7028,-5.8524 -3.585,-12.8449 -2.5333,-19.3861 0.6528,-4.0598 1.9049,-6.444 2.5146,-9.0329 0.3878,-0.165 0.2517,-0.1778 0.4975,-0.7526 1.2492,-2.9206 3.3817,-6.1316 3.5714,-7.1017 0.7256,-0.4974 2.3059,-2.7924 2.8145,-3.5985 1.9542,-3.098 1.6608,-1.8927 3.041,-3.3503 0.6007,-0.6344 0.7835,-1.1917 1.4227,-1.7615 1.2594,-1.1219 4.1953,-2.7141 5.26,-4.1221 0.9388,-0.161 2.9358,-1.4916 3.9988,-2.0942 1.474,-0.8357 2.4661,-1.1605 3.854,-1.931 1.6004,-0.8963 7.2388,-2.5979 7.8619,-3.3888 1.4315,0.0609 3.1062,-0.7379 4.3903,-1.1994 2.4894,-0.5606 4.9674,-1.2889 7.6206,-1.9788 1.008,-0.2622 7.0974,-1.2753 7.6992,-1.8828 1.5497,0.1996 4.4238,-0.5448 6.1761,-0.8025 1.8973,-0.2792 3.7545,-0.5011 5.8632,-0.7979 3.9311,-0.5531 8.2746,-0.8266 12.3273,-1.1968 l 3.6647,-0.2665 6.9278,-0.1445 c -0.0742,0.0532 -0.1681,0.1034 -0.2367,0.1386 -1.1273,0.5771 -3.2626,0.9703 -5.6622,1.5264 -5.3288,1.2351 -12.9112,3.6221 -16.8012,4.4734 -1.3674,0.4969 -7.3811,2.2195 -8.2726,3.2105 -1.2348,0.0607 -6.4573,2.5518 -7.5867,3.2542 -2.1452,1.2061 -4.1884,2.298 -6.1134,3.7902 -1.7391,1.3476 -5.3326,3.8775 -6.8145,5.6996 -4.517,5.5539 -3.0595,3.5257 -6.8423,10.2804 -0.6483,1.544 -2.5835,6.0514 -2.4707,7.8528 -0.7999,0.7623 -0.9394,3.1201 -1.1177,4.398 l -0.3467,3.7301 c -0.1683,0.8235 -0.2242,5.2988 0.3989,5.9975 l 0.1338,1.9931 c 0.2041,1.2104 0.3903,2.9007 1.1979,3.6003 -0.2205,2.8941 5.2126,10.8453 6.8794,12.2938 3.1484,2.7363 7.0121,6.5653 11.0149,8.1978 1.2965,1.0429 5.6953,2.6056 7.543,3.0759 4.2159,1.4629 9.5887,2.2841 14.5275,2.3972 -0.6871,0.3901 -1.66,0.4774 -2.5223,0.5945 l -7.7391,0.7735 c -7.4577,0.4621 -14.349,0.5055 -21.7843,-0.6417 -1.6778,-0.2591 -3.3077,-0.5304 -4.9314,-0.8935 -1.4649,-0.328 -3.1147,-1.0945 -4.5805,-1.0321"
           style="fill:#e62028;fill-opacity:1;fill-rule:evenodd;stroke:none"
           id="path16" /><path
           d="m 268.8344,615.6196 c -0.2889,-1.3675 -0.5601,-2.4495 -0.8289,-3.8855 -0.1227,-0.6559 -0.4181,-2.9112 -0.6423,-3.505 0.01,-0.9698 -0.1511,-2.0169 -0.2316,-2.7763 -0.0502,-0.4728 -0.0598,-1.1086 -0.1247,-1.5542 -0.1777,-1.2203 0.085,-0.4918 -0.309,-0.9471 l 0.0542,-3.0481 v -4.5252 l -0.0542,-3.5807 c 0.4465,-0.5159 0.6375,-3.7554 0.6653,-4.9439 0.5154,-2.4922 0.9323,-5.4394 1.4644,-7.8313 0.2846,-1.2787 0.5686,-2.3357 0.9728,-3.5923 0.37,-1.1498 0.9516,-2.3571 0.8927,-3.6088 0.9085,-0.8215 1.3762,-2.7916 1.8181,-4.0734 0.5054,-1.4658 1.1132,-2.7425 1.8422,-4.0669 0.8867,-1.4023 1.1625,-2.5872 2.1861,-4.1269 0.4748,-0.7147 2.094,-3.2843 2.2768,-3.9218 2.5889,-2.8292 2.3692,-3.8163 5.1577,-6.5171 0.7007,-0.6789 0.7083,-0.8708 1.3047,-1.616 l 5.9908,-5.7209 c 1.3626,-0.8096 2.0579,-1.7544 5.1157,-3.6868 8.7548,-5.5332 15.0491,-8.4645 26.6023,-9.1763 6.171,-0.3801 14.4603,0.6732 20.0194,2.8038 1.4791,0.5224 2.5934,0.8923 3.9971,1.5712 1.4258,0.6894 2.677,1.5523 4.1933,1.8913 0.6948,0.8206 3.2216,2.0798 4.2749,2.7215 1.4409,0.8779 2.7,1.9936 3.985,2.9393 1.7212,1.2671 6.1792,5.2478 7.1231,6.7419 -1.9272,0.1749 -6.2951,-0.7486 -8.6507,-0.8819 -3.1587,-0.1785 -5.9664,-0.288 -9.3294,-0.299 -5.5605,-0.0184 -11.5024,0.3464 -16.7814,1.3734 -4.6568,0.3974 -8.9308,1.8989 -13.3849,3.0424 -0.8566,0.22 -3.2882,0.9632 -3.8098,1.5415 -2.88,-0.1324 -15.8374,6.8777 -19.6602,9.6159 -1.0007,0.7169 -1.8389,1.2875 -2.8746,1.9375 -0.923,0.5794 -1.7051,1.4672 -2.6065,2.1711 -4.2831,3.344 -8.5808,7.886 -11.7836,12.4673 -1.8374,2.628 -4.199,5.9434 -5.2753,9.0352 -1.3813,3.4665 -2.9613,7.4038 -3.5155,11.4395 -0.7325,5.3316 -0.597,7.9925 -0.3631,13.2619 0.3597,2.4652 1.0947,5.0068 1.3331,6.9114 -0.3433,-0.9 -0.6868,-2.3774 -1.044,-3.5807"
           style="fill:#01a2e9;fill-opacity:1;fill-rule:evenodd;stroke:none"
           id="path18" /><path
           d="m 363.2482,534.0416 3.7761,1.1398 c 1.3365,0.8354 17.8143,4.9532 19.5922,5.3918 16.9588,4.1828 37.0255,6.781 54.6125,4.655 1.4108,-0.1706 9.0678,-1.4601 10.0917,-2.4551 1.5142,0.038 6.5888,-2.3094 7.7581,-3.0637 1.211,-0.3974 3.8594,-2.1787 4.9887,-3.0421 0.311,-0.2378 0.4567,-0.3693 0.7393,-0.5919 0.7418,-0.5848 0.2287,-0.316 1.0794,-0.7188 l 1.1115,3.9988 c 0.3211,0.9048 -0.2608,-0.0496 0.2616,0.5289 v 2.8463 c -0.5136,0.5528 0.0598,-0.3299 -0.2837,0.521 -0.0754,0.1868 -0.0715,0.1962 -0.1364,0.4091 -1.622,5.3212 -3.3134,6.1798 -7.5478,9.2449 -0.6778,0.4907 -0.1684,-0.0102 -0.5967,0.5374 l -6.1934,2.5339 c -25.4149,8.6794 -70.9614,3.2579 -90.4966,-14.2316 -1.7382,-1.5559 -6.6501,-7.0676 -7.1266,-10.4074 1.9165,0.271 6.336,2.0727 8.3701,2.7037"
           style="fill:#f6a710;fill-opacity:1;fill-rule:evenodd;stroke:none"
           id="path20" /><path
           d="m 266.7617,567.6778 v 0.2636 l 0.2662,-4.5252 c 0.5184,-5.1421 1.3872,-10.8811 3.2652,-15.7162 0.4615,-1.3739 0.9343,-2.6926 1.4939,-4.1315 0.5139,-1.3226 1.2268,-2.5965 1.7022,-3.8591 l 4.1292,-7.8216 c 1.2504,-0.8697 7.1583,-11.7907 20.2139,-19.4819 l 1.3954,-1.0823 6.0016,-2.7493 c 6.8034,-2.7661 14.8025,-4.6134 22.5958,-4.0218 2.9911,0.1817 5.3288,0.3393 8.1348,0.9465 2.7868,0.6032 4.8512,1.2472 7.312,1.9131 1.3167,0.5244 2.5549,0.9581 3.8381,1.5514 1.1602,0.5366 2.3766,1.1914 3.6213,1.7135 l 0.6582,0.4193 c 0.0496,0.0303 0.1176,0.0694 0.1678,0.0997 l 11.6198,8.4396 c 0.1987,0.3853 3.7369,4.1647 4.068,4.339 0.5995,1.2594 1.9936,2.5682 2.8409,3.8137 0.7565,1.1118 2.0089,3.1936 2.7524,3.9306 l 1.0086,2.3303 -2.8732,-2.0639 c -1.7615,-1.845 -9.3354,-5.9771 -12.2508,-6.8765 -1.4545,-1.1764 -13.049,-4.7163 -15.2807,-4.4442 -0.5329,-0.5272 0.3523,0.0428 -0.5233,-0.2903 -0.3073,-0.117 -0.3138,-0.1009 -0.644,-0.1686 l -3.5297,-0.4726 -0.8966,0.1324 c -0.506,-0.4507 -0.5327,-0.3101 -2.0444,-0.3923 l -5.5851,-0.1837 c -1.5287,0.0111 -6.4397,0.1063 -7.1399,0.4436 l -4.0439,0.5327 c -3.657,0.3461 -10.0349,2.2076 -13.0657,3.4333 -1.1724,0.4739 -9.9454,4.0561 -10.7734,5.3563 -2.3944,0.7302 -9.4751,6.5892 -11.1217,8.1879 -2.6997,2.6212 -6.7397,6.8542 -8.7208,10.518 -0.7951,1.0321 -3.9583,6.3671 -4.2616,7.929 -1.1855,1.4979 -2.3267,6.253 -2.9299,7.9906 l -0.7991,4.0442 c -0.2636,0.5627 -0.0825,0.4306 -0.2616,1.0086 z"
           style="fill:#acce21;fill-opacity:1;fill-rule:evenodd;stroke:none"
           id="path22" /><path
           d="m 330.1438,608.4266 0.3447,-4.5266 c 1.6481,-6.9483 2.8644,-14.1883 8.8387,-19.9315 0.775,-0.7453 1.5205,-1.6453 2.4129,-2.3808 10.2206,-8.424 21.7131,-7.833 35.3576,-6.643 17.5,1.5264 39.4512,0.57 54.527,-9.7572 2.6838,-1.8385 1.9684,-1.3118 3.9526,-3.2113 0.2886,-0.2761 0.4099,-0.4216 0.6778,-0.6619 l 0.9116,-0.701 c -0.8458,3.5798 -7.6462,8.7944 -10.2424,11.0582 -1.4638,0.7917 -2.4523,1.8235 -3.9892,2.6759 -1.0089,0.5596 -3.5521,2.0169 -4.1675,2.8003 -1.9585,0.1285 -10.9483,6.9415 -24.0951,7.3588 -12.0234,0.3818 -14.6287,-0.6868 -27.3699,3.2286 -6.8732,2.1121 -12.8415,5.4789 -18.6984,9.258 -2.4398,1.5741 -8.6721,6.8454 -10.8165,9.1514 -0.4549,0.4892 -0.3608,0.5414 -0.849,1.0156 -0.4062,0.3952 -0.7733,0.5568 -1.188,0.9355 l -4.979,6.2112 c -0.6517,0.7433 0.008,0.1364 -0.6843,0.5468 z"
           style="fill:#01a2e9;fill-opacity:1;fill-rule:evenodd;stroke:none"
           id="path24" /><path
           d="m 334.7501,579.9285 c 0.6248,-0.4218 2.5285,-2.5991 3.0674,-3.3069 1.5511,-2.0372 8.6247,-8.3755 9.1848,-9.2117 0.5703,-0.2075 7.7355,-6.1393 14.6052,-9.129 5.4564,-2.3743 12.0768,-4.3407 18.8241,-3.7712 3.1458,0.2653 6.368,1.4868 9.5822,2.126 6.3456,1.2628 13.862,2.4349 20.344,3.1357 1.7107,0.1848 3.4985,0.3311 5.3319,0.5252 1.6915,0.1789 3.9209,-0.005 5.5477,0.2651 -0.6196,1.0545 -1.1114,1.7368 -1.8643,2.5098 -2.8817,0.0297 -5.8176,-0.2466 -8.4467,0.8209 -3.3474,0.7378 -6.9747,3.6397 -8.2568,5.665 l -1.5647,2.4137 c -10.5633,-1.8164 -20.7964,2.9223 -24.2807,2.4058 -5.0873,-0.754 -10.3076,-1.2612 -15.6172,-0.7515 -6.4216,0.6163 -12.0753,2.3896 -16.8423,5.2804 -4.1792,2.5345 -2.7185,3.0878 -6.6926,4.2316 -2.6842,0.7724 -5.2762,2.463 -7.6062,3.1067 0.7942,-1.5395 4.3554,-5.3813 4.6842,-6.3156"
           style="fill:#e40182;fill-opacity:1;fill-rule:evenodd;stroke:none"
           id="path26" /><path
           d="m 410.8623,535.714 3.9872,-1.0652 7.7758,-1.622 c 0.9093,-0.1812 7.0937,-0.9374 7.6161,-1.4406 1.6245,0.2563 3.0727,-0.1338 4.6567,-0.1338 l 4.2602,-0.047 2.2609,-0.0854 4.9907,1.1693 c 2.168,0.5241 2.8058,1.0695 4.4853,1.893 0.5542,0.6137 0.6267,1.0225 1.3201,1.0667 0.5936,0.8796 1.1885,1.4989 1.3274,2.791 -2.8323,-0.7549 -4.0081,-1.4052 -7.452,-1.4576 -7.9636,-0.1216 -15.0139,1.8272 -22.3809,3.7298 -6.5889,1.7017 -8.5683,3.7154 -14.0034,3.0923 -5.5715,-0.6386 -9.1387,-1.9258 -14.0919,-2.9599 2.74,-1.6571 13.3628,-3.9804 15.2478,-4.9306"
           style="fill:#e62028;fill-opacity:1;fill-rule:evenodd;stroke:none"
           id="path28" /><path
           d="m 380.255,574.6654 c 0.6366,-0.4875 2.171,-0.752 2.9185,-0.9328 2.7011,-0.6537 7.3627,-1.27 10.19,-1.3751 l 10.2288,0.1584 c 7.7542,-0.6692 16.1657,-7.304 18.3986,-12.1535 4.7659,0.3419 9.5088,0.0133 14.0952,-0.5326 -0.3313,0.7744 -0.2009,0.593 -0.8203,1.2957 -0.396,0.449 -0.6097,0.6038 -1.0361,1.1018 -0.7208,0.8419 -1.1792,1.2209 -2.0701,1.9168 -11.1189,8.6885 -31.8498,11.4114 -46.0038,10.7637 z"
           style="fill:#acce21;fill-opacity:1;fill-rule:evenodd;stroke:none"
           id="path30" /><path
           d="m 366.9985,592.7134 c -2.1844,0.79 -8.3348,4.9192 -10.5634,6.7498 -0.3288,0.2702 -0.3789,0.3563 -0.7579,0.6123 -0.692,0.4671 0.008,0.1015 -0.8368,0.4595 1.7498,-5.5055 5.0312,-9.1395 9.9742,-11.0367 5.1186,-1.9647 11.024,-3.2349 17.4685,-3.2998 -0.3611,0.3078 -0.1077,0.1426 -0.6128,0.3971 l -1.6821,0.5185 c -3.0345,0.8716 -11.1481,4.1485 -12.9897,5.5993"
           style="fill:#acce21;fill-opacity:1;fill-rule:evenodd;stroke:none"
           id="path32" /></g><text
         transform="matrix(0.699,0,0,-1,89.9342,242.0685)"
         style="font-variant:normal;font-weight:900;font-size:30.529px;font-family:Geometric415BT;-inkscape-font-specification:Geometric415BT-BlackA;writing-mode:lr-tb;fill:#2e3092;fill-opacity:1;fill-rule:nonzero;stroke:none"
         id="text36"><tspan
           x="0 22.621988 42.068962 62.431805 79.253281 89.511024 110.6283 130.99115 139.81403 148.6369 157.45979 174.83078 201.81842 220.5327 240.89554 258.98169 279.34454 301.96652 319.33752 346.32516 355.14804 372.51904 381.34192 402.44479 422.80765 442.25461 461.12155 485.42261 509.08261 529.44543 552.06744 569.43842"
           y="0"
           id="tspan34">GRÁFICA , EMBALAGEM E CARTONAGEM</tspan></text><path
         d="m 94.9819,203.597 c 0.2449,3.0634 0.4198,5.5247 0.4901,7.3814 0.14,2.7851 0.2798,6.5455 0.4192,11.3732 0.1055,4.8282 0.1752,8.0776 0.1752,9.7024 v 2.507 c 3.4294,-0.0457 6.6133,-0.0457 9.5522,-0.0457 2.9747,0 5.8436,0 8.5725,0.0457 -0.1746,-3.4815 -0.2794,-5.7099 -0.2794,-6.7774 l -1.4701,0.0462 -1.1891,0.0468 h -1.2252 -3.3587 c -0.3853,0 -1.5047,0 -3.3942,-0.0468 l -0.1404,-5.3387 2.4846,-0.0468 h 2.7641 c 0.805,0 1.9942,0.0468 3.6391,0.0935 -0.1046,-2.878 -0.1749,-5.1063 -0.1749,-6.7311 -1.8547,0.0456 -3.1839,0.0924 -4.0941,0.0924 -1.4695,0 -3.1136,-0.0468 -4.898,-0.0924 l -0.1751,-8.1712 -0.0352,-3.0172 v -1.0213 l -3.6737,0.0456 c -0.2803,0 -1.6095,0 -3.9889,-0.0456 z m 31.386,23.7223 c 1.3995,0 2.7641,-0.2781 4.0587,-0.8354 1.3294,-0.6037 2.4143,-1.4391 3.3236,-2.5072 0.9099,-1.0673 1.5749,-2.3204 1.9947,-3.8064 0.4199,-1.4394 0.6299,-2.9712 0.6299,-4.6428 0,-1.6249 -0.1752,-3.1567 -0.5598,-4.5958 -0.3847,-1.4851 -1.0497,-2.8313 -1.9593,-4.1318 -0.91,-1.2538 -2.0645,-2.2283 -3.4643,-2.8313 -1.3994,-0.6508 -2.9041,-0.9751 -4.4787,-0.9751 -1.4341,0 -2.8338,0.2787 -4.1638,0.8354 -1.3298,0.5576 -2.4492,1.3929 -3.3588,2.4605 -0.9099,1.0678 -1.5749,2.3672 -2.0293,3.8531 -0.4198,1.4851 -0.665,3.0642 -0.665,4.6891 0,1.671 0.21,3.2496 0.665,4.7352 0.4198,1.4857 1.1194,2.8318 2.0993,4.0386 0.9445,1.2075 2.0991,2.0885 3.4988,2.7388 1.4344,0.6503 2.8693,0.9751 4.409,0.9751 z m -0.1403,-6.6849 c -0.7347,0 -1.3643,-0.2319 -1.959,-0.7427 -0.5604,-0.5111 -0.9799,-1.207 -1.26,-2.1816 -0.3149,-0.9756 -0.455,-1.9964 -0.455,-3.1104 0,-1.6716 0.3147,-2.9254 0.9451,-3.8075 0.6299,-0.8822 1.3998,-1.3456 2.3437,-1.3456 0.7353,0 1.3652,0.2786 1.9596,0.7424 0.5601,0.5108 0.9799,1.2537 1.2949,2.2751 0.28,0.9745 0.4198,2.042 0.4198,3.1563 0,0.929 -0.1049,1.7638 -0.3501,2.5538 -0.2101,0.7424 -0.5947,1.3459 -1.1194,1.7643 -0.5247,0.464 -1.1194,0.6959 -1.8196,0.6959 z m 12.4915,-17.0374 c 0.35,3.4347 0.5947,7.2422 0.7698,11.3732 0.1749,4.1788 0.2798,8.0781 0.315,11.7924 1.3646,-0.0468 2.5543,-0.0468 3.5339,-0.0468 1.1546,0 2.274,0 3.3242,0.0468 l -0.14,-3.0646 c 0.3495,0.5576 0.6996,0.9752 0.9445,1.3 0.2798,0.3249 0.6298,0.6503 1.0151,0.9289 0.4192,0.3249 0.8396,0.557 1.294,0.7889 0.4552,0.1857 0.9448,0.3254 1.5046,0.4181 0.525,0.1392 1.12,0.1854 1.6795,0.1854 0.8397,0 1.6447,-0.093 2.4146,-0.3248 0.7693,-0.2319 1.4343,-0.6035 1.959,-1.0219 0.5256,-0.4176 0.9448,-0.9746 1.2949,-1.5775 0.3501,-0.6508 0.5947,-1.3468 0.7001,-2.0891 0.1044,-0.7427 0.1747,-1.4865 0.1747,-2.2751 0,-0.5573 -0.0352,-1.8108 -0.1401,-3.7137 l -0.2798,-8.2168 c -0.0697,-1.6254 -0.1048,-3.1104 -0.1048,-4.5034 -1.1546,0.0456 -2.2048,0.0456 -3.2193,0.0456 -1.3644,0 -2.5895,0 -3.7089,-0.0456 0.1052,1.393 0.2101,3.4347 0.3501,6.1282 0.1046,2.7389 0.1749,4.6415 0.1749,5.7566 0,1.6711 -0.2452,2.8775 -0.7348,3.5272 -0.5246,0.6964 -1.1551,1.0219 -1.8892,1.0219 -0.6651,0 -1.2949,-0.2787 -1.8899,-0.8357 -0.5947,-0.6041 -1.0145,-1.4394 -1.3646,-2.5069 -0.3149,-1.1141 -0.5247,-2.9248 -0.6647,-5.4318 -0.1398,-2.5064 -0.2095,-5.0601 -0.2798,-7.6595 -1.12,0.0456 -2.2394,0.0456 -3.3242,0.0456 -1.12,0 -2.3788,0 -3.7088,-0.0456 z m 40.9028,6.8241 c -0.1401,-0.8821 -0.4199,-3.0639 -0.8397,-6.5454 -1.3297,-0.3717 -2.4491,-0.6035 -3.3242,-0.6968 -0.9099,-0.1398 -1.8192,-0.1854 -2.764,-0.1854 -1.3646,0 -2.5895,0.1392 -3.744,0.3716 -1.1546,0.2319 -2.1342,0.6959 -2.9393,1.3462 -0.8399,0.6029 -1.5395,1.3927 -2.0993,2.3672 -0.5601,0.9289 -0.9794,2.0432 -1.2594,3.3426 -0.315,1.3 -0.4553,2.6465 -0.4553,3.9921 0,1.9496 0.2804,3.8531 0.8751,5.7101 0.595,1.8572 1.3297,3.2967 2.2393,4.3174 0.9451,1.0687 1.9942,1.8111 3.1839,2.2289 1.1897,0.4173 2.4146,0.6497 3.6743,0.6497 1.2946,0 2.554,-0.1854 3.7088,-0.6035 1.1897,-0.3716 2.2045,-1.1143 3.009,-2.0888 0.8399,-0.9752 1.3998,-2.1359 1.7493,-3.3897 0.3501,-1.2532 0.525,-2.5994 0.525,-4.0382 0,-0.8819 -0.0701,-1.8108 -0.2101,-2.8781 H 168.95 c -0.0352,-0.2789 -0.0352,-0.4651 -0.0352,-0.697 0,-1.6248 0.455,-2.7848 1.3301,-3.5745 0.8742,-0.7892 1.9595,-1.1608 3.219,-1.1608 0.7693,0 1.6089,0.1395 2.5889,0.3716 0.9447,0.2319 2.1696,0.6038 3.5691,1.1608 z m -10.567,7.3347 h 5.6684 c 0,0.2792 0.0349,0.4643 0.0349,0.6502 0,0.7892 -0.1046,1.4857 -0.315,2.043 -0.2446,0.5564 -0.5249,0.928 -0.9096,1.2073 -0.4198,0.2318 -0.8396,0.3707 -1.3292,0.3707 -0.35,0 -0.7001,-0.0465 -1.015,-0.2319 -0.315,-0.1388 -0.595,-0.3254 -0.8748,-0.6034 -0.2446,-0.2787 -0.4544,-0.6041 -0.6299,-0.9757 -0.1746,-0.3711 -0.2798,-0.6959 -0.3852,-1.0208 -0.0692,-0.371 -0.1395,-0.8359 -0.2446,-1.4394 z m 14.9408,0.7897 c 0.1049,2.4137 0.1746,5.1525 0.2452,8.2171 l 3.5334,-0.0468 c 0.3852,0 1.3652,0 2.9747,0.0468 -0.0703,-1.4859 -0.1755,-4.2248 -0.315,-8.2171 l -2.9741,0.0924 c -0.2103,0 -1.3648,-0.0468 -3.4642,-0.0924 z m -0.4198,-14.9485 c 0.1049,2.0421 0.1746,4.7809 0.2446,8.2168 l 3.5346,-0.0465 c 0.3846,0 1.3643,0 2.9741,0.0465 -0.1055,-1.6248 -0.2101,-4.3637 -0.3155,-8.2168 l -2.9741,0.0456 c -0.2095,0 -1.3641,0 -3.4637,-0.0456 z m 25.9622,0 c 0.1401,2.3675 0.3498,6.1282 0.5599,11.3732 0.21,5.2458 0.3495,8.9606 0.3846,11.2348 -0.4198,-0.3713 -0.8396,-0.6956 -1.2242,-1.0672 -0.3847,-0.3249 -1.26,-1.1143 -2.5895,-2.4149 0.0703,1.3006 0.14,2.7865 0.1746,4.5502 0.0706,1.7178 0.1052,2.971 0.1052,3.8064 0.5598,0.464 1.2248,0.9745 1.9596,1.578 0.7347,0.6041 1.1897,0.9757 1.3646,1.1611 0.14,0.1394 0.3849,0.4181 0.735,0.7424 1.0145,-0.0457 2.1691,-0.0457 3.4991,-0.0457 1.2594,0 2.5537,0 3.8483,0.0457 l -0.3495,-5.0596 -0.7347,-16.7595 -0.1401,-6.1739 v -2.971 c -0.9799,0.0456 -2.169,0.0456 -3.5694,0.0456 -1.6095,0 -2.9389,0 -4.0235,-0.0456 z m 24.7377,0 c 0.1049,1.3456 0.2101,2.7856 0.2804,4.271 0.0697,1.5312 0.1394,2.7388 0.1746,3.6207 h -1.8547 -1.3995 l -6.438,-0.1387 0.0348,0.696 c 0.0352,0.1851 0.0352,0.6502 0.0703,1.485 l 0.1395,4.2716 c 0,0.4175 0,0.8353 0,1.2537 1.1545,1.8567 2.5197,4.1774 4.0243,6.9636 1.5392,2.7845 2.9741,5.6169 4.3385,8.5411 1.7844,-0.0457 3.3587,-0.0457 4.7585,-0.0457 1.3297,0 2.6592,0 4.0592,0.0457 -0.1752,-3.2029 -0.3504,-6.3601 -0.455,-9.4232 -0.1054,-3.064 -0.1752,-5.3856 -0.1752,-6.9636 0.5599,-0.0468 1.1897,-0.0468 1.9245,-0.0468 0.5947,0 0.9096,0 1.0151,0 0.1043,0.0468 0.3146,0.0468 0.6647,0.0927 -0.0352,-1.8105 -0.0703,-3.714 -0.0703,-5.7104 v -1.067 c -0.6647,0.046 -1.6792,0.0919 -3.0093,0.0919 l -0.6996,-0.0459 c -0.1048,-1.486 -0.14,-4.0853 -0.14,-7.8917 -1.12,0.0456 -2.3091,0.0456 -3.4988,0.0456 -1.1545,0 -2.3794,0 -3.744,-0.0456 z m 1.4349,14.2518 0.3501,10.26 c -0.7353,-1.5784 -1.3652,-2.7859 -1.8547,-3.7137 -0.4901,-0.9295 -0.8402,-1.5792 -1.0503,-1.9965 l -2.5191,-4.5498 z m 24.5976,-14.2518 c 1.0146,1.6248 1.9596,3.1561 2.8338,4.6426 0.8751,1.4856 1.7499,3.1104 2.6592,4.7809 0.8756,1.6719 1.575,3.0637 2.0302,4.1786 0.4544,1.0672 0.8396,2.0891 1.1194,3.0636 0.3146,0.9746 0.4895,1.7643 0.5944,2.3681 0.1055,0.6029 0.1403,1.2064 0.1403,1.7643 0,0.8351 -0.1051,1.5318 -0.3149,2.1353 -0.21,0.6494 -0.525,1.1143 -0.9799,1.4386 -0.4198,0.3249 -0.9094,0.4646 -1.4349,0.4646 -0.8742,0 -1.6441,-0.3716 -2.2388,-1.1143 -0.6296,-0.7889 -0.9445,-1.7643 -0.9445,-3.0172 0,-0.7435 0.1394,-1.347 0.3495,-1.8578 0.2449,-0.51 0.595,-0.9278 1.0848,-1.207 0.455,-0.2781 0.9445,-0.4178 1.3995,-0.4178 0.3149,0 0.7347,0.0935 1.2597,0.233 -1.0848,-2.0435 -2.2042,-4.2245 -3.3236,-6.4996 -0.3853,-0.0468 -0.7008,-0.093 -0.98,-0.093 -0.7699,0 -1.5749,0.1854 -2.4491,0.557 -0.9102,0.3714 -1.6795,0.9749 -2.3443,1.7176 -0.7001,0.7894 -1.2251,1.764 -1.5749,2.9709 -0.3495,1.1608 -0.525,2.4614 -0.525,3.7602 0,1.8111 0.315,3.4821 0.8748,5.0607 0.5953,1.5318 1.4349,2.8318 2.5191,3.8537 1.0503,0.9746 2.2048,1.7178 3.4643,2.1353 1.2597,0.4173 2.624,0.6038 4.0935,0.6038 1.33,0 2.624,-0.2333 3.884,-0.697 1.2246,-0.4641 2.2394,-1.2067 3.0439,-2.1354 0.8047,-0.9751 1.3651,-2.135 1.7498,-3.4823 0.4198,-1.3459 0.5953,-2.6921 0.5953,-3.9458 0,-0.8819 -0.0706,-1.8567 -0.2458,-2.9705 -0.1395,-1.1143 -0.4192,-2.2756 -0.7342,-3.4821 -0.3501,-1.2531 -0.8396,-2.6467 -1.4695,-4.1785 -0.595,-1.5781 -1.3297,-3.1561 -2.1696,-4.8283 -0.8396,-1.6248 -1.8544,-3.5739 -3.079,-5.8022 z m 24.0727,15.8766 c -0.6296,0.4181 -1.1197,0.7424 -1.4346,1.0684 -0.3144,0.2775 -0.6293,0.6497 -0.9096,1.0669 -0.2798,0.4181 -0.5247,0.8822 -0.7348,1.393 -0.1752,0.511 -0.3149,1.0672 -0.4198,1.578 -0.0703,0.5579 -0.1049,1.114 -0.1049,1.6719 0,1.4386 0.2449,2.7856 0.7699,3.9455 0.4896,1.1608 1.2243,2.1354 2.2042,2.9254 0.9797,0.7427 2.0294,1.2994 3.1488,1.578 1.1199,0.2787 2.2745,0.4184 3.4993,0.4184 1.1897,0 2.3091,-0.1865 3.3939,-0.5108 1.0849,-0.3716 2.0297,-0.9295 2.799,-1.6719 0.805,-0.7894 1.3649,-1.6248 1.7149,-2.5999 0.3847,-0.974 0.5596,-2.1356 0.5596,-3.5274 0,-0.65 -0.0346,-1.2541 -0.1403,-1.8579 -0.1043,-0.6035 -0.2444,-1.1596 -0.4544,-1.6704 -0.2098,-0.5105 -0.455,-0.9748 -0.7348,-1.3927 -0.3149,-0.4184 -0.6301,-0.7897 -0.945,-1.1143 -0.3495,-0.3248 -0.8745,-0.7429 -1.6795,-1.2537 0.7353,-0.2787 1.2948,-0.5111 1.6795,-0.7424 0.3852,-0.2322 0.7699,-0.5114 1.1199,-0.8825 0.3501,-0.4181 0.6648,-0.8353 0.91,-1.3926 0.2797,-0.5108 0.4544,-1.0675 0.5595,-1.671 0.1055,-0.5573 0.1752,-1.2076 0.1752,-1.8567 0,-1.4862 -0.2803,-2.9254 -0.8396,-4.3183 -0.5601,-1.3459 -1.2949,-2.4602 -2.2745,-3.2956 -0.9454,-0.8362 -2.0642,-1.4397 -3.3588,-1.8108 -1.26,-0.3713 -2.5549,-0.5567 -3.884,-0.5567 -1.2949,0 -2.5192,0.1392 -3.6743,0.5105 -1.1891,0.3249 -2.2394,0.8825 -3.1487,1.6711 -0.9448,0.7426 -1.6098,1.6715 -2.0296,2.7391 -0.4198,1.0678 -0.6296,2.2748 -0.6296,3.6204 0,0.79 0.0697,1.533 0.2443,2.2756 0.1404,0.7427 0.3853,1.4386 0.7002,2.0889 0.3149,0.6503 0.6644,1.207 1.0848,1.6713 0.3847,0.4173 0.8045,0.7889 1.1897,1.0207 0.3847,0.2787 0.9448,0.5579 1.6441,0.8825 z m 5.5987,9.3775 c -0.8748,0 -1.6101,-0.3248 -2.1342,-0.9745 -0.4904,-0.6968 -0.7699,-1.4856 -0.7699,-2.4602 0,-0.5578 0.1049,-1.1143 0.3498,-1.5792 0.2101,-0.5105 0.525,-0.8353 0.9442,-1.0669 0.4204,-0.2325 0.8402,-0.3717 1.3301,-0.3717 0.8396,0 1.5043,0.3243 2.0644,0.9746 0.5596,0.6503 0.8396,1.4854 0.8396,2.507 0,0.8824 -0.2449,1.6248 -0.6995,2.1818 -0.4902,0.5105 -1.12,0.7891 -1.9245,0.7891 z m -0.4198,-12.4415 c -1.0151,0 -1.8196,-0.3254 -2.3794,-1.0213 -0.5953,-0.6959 -0.8748,-1.5781 -0.8748,-2.6464 0,-0.6492 0.1401,-1.2532 0.3847,-1.7635 0.2455,-0.5573 0.6301,-0.9757 1.1197,-1.2532 0.4898,-0.2786 1.0145,-0.4184 1.5746,-0.4184 0.595,0 1.1194,0.1398 1.6095,0.4641 0.4896,0.2786 0.8748,0.7426 1.1546,1.3461 0.2803,0.6041 0.4198,1.2538 0.4198,2.043 0,1.0219 -0.2449,1.8102 -0.8045,2.4142 -0.5247,0.5568 -1.26,0.8354 -2.2042,0.8354 z m 19.8388,-12.8126 c 0.1401,2.3675 0.3501,6.1282 0.5599,11.3732 0.2103,5.2458 0.3501,8.9606 0.3852,11.2348 -0.4204,-0.3713 -0.8396,-0.6956 -1.2248,-1.0672 -0.3847,-0.3249 -1.2598,-1.1143 -2.5889,-2.4149 0.0697,1.3006 0.1394,2.7865 0.1746,4.5502 0.07,1.7178 0.1046,2.971 0.1046,3.8064 0.5604,0.464 1.2254,0.9745 1.9596,1.578 0.7353,0.6041 1.1897,0.9757 1.3649,1.1611 0.1397,0.1394 0.3849,0.4181 0.7347,0.7424 1.0145,-0.0457 2.1691,-0.0457 3.4991,-0.0457 1.2594,0 2.554,0 3.8489,0.0457 l -0.3501,-5.0596 -0.7347,-16.7595 -0.1401,-6.1739 v -2.971 c -0.9799,0.0456 -2.169,0.0456 -3.5688,0.0456 -1.6095,0 -2.939,0 -4.0241,-0.0456 z m 24.7377,0 c 0.1055,1.3456 0.2103,2.7856 0.2804,4.271 0.0697,1.5312 0.14,2.7388 0.1746,3.6207 h -1.8542 -1.4 l -6.4378,-0.1387 0.0346,0.696 c 0.0357,0.1851 0.0357,0.6502 0.0703,1.485 l 0.14,4.2716 c 0,0.4175 0,0.8353 0,1.2537 1.1546,1.8567 2.5192,4.1774 4.0238,6.9636 1.5392,2.7845 2.9741,5.6169 4.3385,8.5411 1.7844,-0.0457 3.3593,-0.0457 4.7585,-0.0457 1.3297,0 2.6597,0 4.0595,0.0457 -0.1755,-3.2029 -0.3501,-6.3601 -0.4553,-9.4232 -0.1049,-3.064 -0.1752,-5.3856 -0.1752,-6.9636 0.5599,-0.0468 1.1897,-0.0468 1.925,-0.0468 0.5948,0 0.9091,0 1.0146,0 0.1049,0.0468 0.3149,0.0468 0.6647,0.0927 -0.0352,-1.8105 -0.0697,-3.714 -0.0697,-5.7104 v -1.067 c -0.665,0.046 -1.6798,0.0919 -3.0099,0.0919 l -0.6993,-0.0459 c -0.1051,-1.486 -0.1403,-4.0853 -0.1403,-7.8917 -1.1194,0.0456 -2.3091,0.0456 -3.4988,0.0456 -1.1545,0 -2.3788,0 -3.744,-0.0456 z m 1.4349,14.2518 0.3501,10.26 c -0.7348,-1.5784 -1.3646,-2.7859 -1.8547,-3.7137 -0.4898,-0.9295 -0.8396,-1.5792 -1.0497,-1.9965 l -2.5197,-4.5498 z m 21.3438,-14.2518 c 0.1048,1.3456 0.21,2.7856 0.2797,4.271 0.0703,1.5312 0.1401,2.7388 0.1746,3.6207 h -1.8541 -1.3995 l -6.4383,-0.1387 0.0352,0.696 c 0.0351,0.1851 0.0351,0.6502 0.0697,1.485 l 0.14,4.2716 c 0,0.4175 0,0.8353 0,1.2537 1.1549,1.8567 2.5192,4.1774 4.0238,6.9636 1.5398,2.7845 2.9741,5.6169 4.339,8.5411 1.7844,-0.0457 3.3588,-0.0457 4.7585,-0.0457 1.33,0 2.6592,0 4.0589,0.0457 -0.1754,-3.2029 -0.35,-6.3601 -0.4549,-9.4232 -0.1052,-3.064 -0.1749,-5.3856 -0.1749,-6.9636 0.5601,-0.0468 1.1897,-0.0468 1.9244,-0.0468 0.5947,0 0.9097,0 1.0145,0 0.1049,0.0468 0.315,0.0468 0.6651,0.0927 -0.0352,-1.8105 -0.0701,-3.714 -0.0701,-5.7104 v -1.067 c -0.6647,0.046 -1.6792,0.0919 -3.0089,0.0919 l -0.7002,-0.0459 c -0.1046,-1.486 -0.1397,-4.0853 -0.1397,-7.8917 -1.12,0.0456 -2.3091,0.0456 -3.4994,0.0456 -1.1546,0 -2.3788,0 -3.7434,-0.0456 z m 1.4343,14.2518 0.3501,10.26 c -0.7348,-1.5784 -1.3646,-2.7859 -1.8547,-3.7137 -0.4896,-0.9295 -0.8397,-1.5792 -1.0497,-1.9965 l -2.5189,-4.5498 z m 10.7773,-5.3391 c 0.1398,2.1827 0.2095,4.2715 0.2446,6.268 1.6444,-0.0468 3.149,-0.093 4.5837,-0.093 1.4694,0 2.9741,0.0462 4.5836,0.093 -0.14,-1.9497 -0.2098,-4.0397 -0.2449,-6.268 -1.6093,0.0473 -3.1493,0.0473 -4.5837,0.0473 -1.4694,0 -2.9741,0 -4.5833,-0.0473 z m 10.7067,-8.9127 c 0.0352,0.6959 0.0698,1.6716 0.1049,2.8313 0.0352,1.161 0.0703,2.3674 0.1049,3.5744 1.1897,1.3006 2.2745,2.5543 3.2545,3.7608 1.6089,1.9502 3.0438,3.8069 4.2687,5.5247 0.9793,1.3462 1.8195,2.5999 2.484,3.7601 0.3852,0.696 0.665,1.2538 0.7699,1.7178 0.1048,0.2787 0.1394,0.6035 0.1394,0.9746 0,0.4184 -0.0697,0.7897 -0.2092,1.1143 -0.1403,0.3248 -0.3846,0.6035 -0.7001,0.8354 -0.315,0.233 -0.6996,0.4184 -1.1546,0.5578 -0.4549,0.1392 -0.9799,0.1854 -1.5744,0.1854 -0.8053,0 -1.6449,-0.093 -2.5191,-0.2784 -0.8748,-0.1862 -2.0648,-0.5105 -3.6045,-1.0213 l 0.4552,3.2497 c 0.0697,0.6494 0.2449,1.9031 0.4198,3.7604 3.0093,0.6491 5.8085,0.9751 8.4325,0.9751 1.1897,0 2.3443,-0.1397 3.4285,-0.4184 1.0854,-0.2786 2.0651,-0.7894 2.9396,-1.4853 0.8747,-0.6506 1.5046,-1.4857 1.9595,-2.3678 0.4199,-0.9289 0.6299,-1.9035 0.6299,-2.971 0,-0.6968 -0.0703,-1.3927 -0.1749,-2.0429 -0.14,-0.6503 -0.3501,-1.4386 -0.7002,-2.3208 -0.4543,-1.0686 -0.979,-2.1359 -1.6095,-3.2034 -0.9445,-1.5786 -2.0293,-3.2034 -3.2539,-4.9212 -1.1897,-1.5781 -2.6243,-3.3891 -4.2686,-5.3856 h 1.8892 c 0.4199,0 1.2949,0 2.6241,0.0468 1.2948,0 2.2048,0.0468 2.7295,0.093 0.5249,0 1.1545,0.0932 1.8892,0.1862 -0.0351,-0.7432 -0.0697,-1.6254 -0.1394,-2.7394 -0.1055,-1.0681 -0.1752,-2.4142 -0.2458,-3.9923 -2.8338,0.0456 -5.8079,0.0456 -8.8869,0.0456 -3.744,0 -6.8933,0 -9.4822,-0.0456 z m 33.45,31.5221 c 1.8547,0 3.4991,-0.4651 4.9689,-1.4403 1.4694,-0.9277 2.624,-2.5526 3.4639,-4.8744 0.805,-2.3205 1.2243,-5.0128 1.2243,-8.1233 0,-2.461 -0.2447,-4.8744 -0.7694,-7.289 -0.4898,-2.4137 -1.1897,-4.3639 -2.0647,-5.8028 -0.8748,-1.4397 -1.9942,-2.5993 -3.4291,-3.3894 -1.4343,-0.7891 -2.9389,-1.2064 -4.5484,-1.2064 -1.3998,0 -2.6592,0.2787 -3.8841,0.8822 -1.1891,0.6034 -2.2739,1.578 -3.1836,2.8774 -0.9099,1.3473 -1.5398,2.9248 -1.8898,4.7356 -0.3847,1.811 -0.5599,3.7601 -0.5599,5.8498 0,2.5064 0.2452,4.9675 0.7705,7.3809 0.4895,2.4145 1.2243,4.4104 2.1339,5.8963 0.9094,1.5313 2.0293,2.6921 3.4291,3.3891 1.3643,0.7427 2.8343,1.1143 4.3384,1.1143 z m -0.1049,-6.6855 c -0.5247,0 -1.0145,-0.1854 -1.4349,-0.65 -0.5247,-0.5105 -0.9093,-1.2075 -1.2243,-2.0897 -0.3495,-1.0669 -0.6298,-2.3207 -0.8044,-3.7134 -0.2101,-1.5315 -0.3155,-3.2028 -0.3155,-5.0142 0,-1.6242 0.1054,-2.9242 0.35,-3.9914 0.2104,-1.0214 0.5599,-1.8579 1.0151,-2.4143 0.4896,-0.6035 1.0148,-0.8827 1.6441,-0.8827 0.315,0 0.665,0.093 0.98,0.2792 0.3146,0.2319 0.6647,0.6035 1.0148,1.2067 0.3846,0.6035 0.6996,1.4394 0.9799,2.5535 0.2444,1.0675 0.4544,2.2283 0.5944,3.4356 0.1052,1.2064 0.1749,2.4139 0.1749,3.6666 0,2.5537 -0.2797,4.5034 -0.8044,5.7566 -0.525,1.2537 -1.2598,1.8575 -2.1697,1.8575 z m 19.4539,-24.8366 c 0.1403,2.3675 0.3501,6.1282 0.5607,11.3732 0.2098,5.2458 0.3495,8.9606 0.3847,11.2348 -0.4198,-0.3713 -0.8397,-0.6956 -1.2243,-1.0672 -0.3852,-0.3249 -1.2603,-1.1143 -2.5895,-2.4149 0.0698,1.3006 0.1401,2.7865 0.1746,4.5502 0.0698,1.7178 0.1052,2.971 0.1052,3.8064 0.5599,0.464 1.2249,0.9745 1.959,1.578 0.7353,0.6041 1.1903,0.9757 1.3649,1.1611 0.1403,0.1394 0.3847,0.4181 0.7348,0.7424 1.0145,-0.0457 2.169,-0.0457 3.499,-0.0457 1.2595,0 2.5541,0 3.8489,0.0457 l -0.3495,-5.0596 -0.7353,-16.7595 -0.14,-6.1739 v -2.971 c -0.9794,0.0456 -2.1691,0.0456 -3.5688,0.0456 -1.6096,0 -2.939,0 -4.0244,-0.0456 z m 26.208,31.5221 c 1.8544,0 3.4988,-0.4651 4.9689,-1.4403 1.4694,-0.9277 2.624,-2.5526 3.4636,-4.8744 0.8045,-2.3205 1.2243,-5.0128 1.2243,-8.1233 0,-2.461 -0.2446,-4.8744 -0.7699,-7.289 -0.4895,-2.4137 -1.1897,-4.3639 -2.0639,-5.8028 -0.8751,-1.4397 -1.9945,-2.5993 -3.4291,-3.3894 -1.4349,-0.7891 -2.9395,-1.2064 -4.549,-1.2064 -1.3992,0 -2.6592,0.2787 -3.8838,0.8822 -1.1891,0.6034 -2.2739,1.578 -3.1838,2.8774 -0.9097,1.3473 -1.5398,2.9248 -1.8893,4.7356 -0.3847,1.811 -0.5601,3.7601 -0.5601,5.8498 0,2.5064 0.2451,4.9675 0.7698,7.3809 0.4899,2.4145 1.2252,4.4104 2.1345,5.8963 0.9097,1.5313 2.0294,2.6921 3.4291,3.3891 1.364,0.7427 2.8341,1.1143 4.3387,1.1143 z m -0.1052,-6.6855 c -0.5246,0 -1.0142,-0.1854 -1.4346,-0.65 -0.5249,-0.5105 -0.9096,-1.2075 -1.2245,-2.0897 -0.3501,-1.0669 -0.6296,-2.3207 -0.8045,-3.7134 -0.2103,-1.5315 -0.3155,-3.2028 -0.3155,-5.0142 0,-1.6242 0.1052,-2.9242 0.3501,-3.9914 0.21,-1.0214 0.5595,-1.8579 1.0145,-2.4143 0.4901,-0.6035 1.0151,-0.8827 1.6447,-0.8827 0.3149,0 0.665,0.093 0.9799,0.2792 0.3149,0.2319 0.665,0.6035 1.0145,1.2067 0.3852,0.6035 0.6999,1.4394 0.9797,2.5535 0.2452,1.0675 0.4549,2.2283 0.5952,3.4356 0.1044,1.2064 0.1747,2.4139 0.1747,3.6666 0,2.5537 -0.2801,4.5034 -0.8045,5.7566 -0.5247,1.2537 -1.26,1.8575 -2.1697,1.8575 z"
         style="fill:#ed1c24;fill-opacity:1;fill-rule:nonzero;stroke:#231f20;stroke-width:0.5669;stroke-linecap:butt;stroke-linejoin:miter;stroke-miterlimit:22.9256;stroke-dasharray:none;stroke-opacity:1"
         id="path38" /><g
         id="g40"><path
           d="m 477.5221,209.0248 c 0.3498,1.4746 1.0333,3.253 1.5798,4.7058 0.7534,2.0015 -0.4099,2.7436 -0.8756,4.6842 -2.583,10.7629 10.2645,18.9516 19.3308,11.162 1.7949,-1.5423 3.68,-5.0933 3.6193,-8.7732 -0.1091,-6.6169 -6.2169,-12.2187 -13.6159,-11.035 -2.2819,0.3651 -2.9515,1.506 -5.082,0.7988 -1.5454,-0.5128 -3.3273,-1.1492 -4.9564,-1.5426 z m 0.9125,29.4092 c -6.4134,-1.035 -6.772,-6.2246 -6.7691,-10.8678 0.002,-2.9305 -0.1647,-15.9474 0.0873,-17.7109 0.3637,-2.5435 1.9494,-4.4297 3.4356,-5.4391 2.3113,-1.5701 4.3849,-1.3634 7.5379,-1.3668 3.0002,-0.003 15.6863,-0.1778 17.6162,0.1224 2.3859,0.3713 4.2953,1.9352 5.2755,3.3645 1.6002,2.3331 1.3669,4.437 1.3623,7.5146 l -0.0612,17.6732 c -0.3379,2.6013 -1.8388,4.3225 -3.4018,5.4453 -2.1002,1.5089 -4.6032,1.4003 -7.5087,1.3992 -2.9985,-0.001 -15.6595,0.174 -17.574,-0.1346"
           style="fill:#00a650;fill-opacity:1;fill-rule:evenodd;stroke:none"
           id="path42" /><path
           d="m 495.4742,218.4678 c -0.2763,-5.7486 -9.8042,-1.0576 -11.4219,4.1315 -0.8742,2.8044 1.8885,5.3544 2.9843,2.9866 0.1902,-0.4104 0.6667,-1.565 0.6228,-1.9604 -0.1687,-1.5279 -2.0103,-0.7662 0.436,-3.2723 0.8183,-0.8382 1.7379,-1.8122 3.304,-1.8632 0.5244,0.5343 0.4692,0.7389 1.1138,1.345 1.0751,-0.1171 2.2957,-0.8697 2.961,-1.3672 z m -15.004,-6.4987 c 1.3067,0.1106 2.8749,1.137 4.009,0.8326 1.3266,-0.3558 1.8853,-1.0752 3.8571,-1.3051 5.7799,-0.6741 10.861,3.6252 10.9709,9.5434 0.1052,5.6551 -4.9147,10.1497 -10.4907,9.7523 -2.9038,-0.2069 -5.4011,-1.811 -6.7822,-3.4631 -4.6859,-5.6043 -0.6843,-11.2467 -0.5615,-11.7456 0.1916,-0.7793 -0.8215,-2.7431 -1.0026,-3.6145"
           style="fill:#00a650;fill-opacity:1;fill-rule:evenodd;stroke:none"
           id="path44" /><path
           d="m 480.4702,211.9691 c 0.1811,0.8714 1.1942,2.8352 1.0026,3.6145 -0.1228,0.4989 -4.1244,6.1413 0.5615,11.7456 1.3811,1.6521 3.8784,3.2562 6.7822,3.4631 5.576,0.3974 10.5959,-4.0972 10.4907,-9.7523 -0.1099,-5.9182 -5.191,-10.2175 -10.9709,-9.5434 -1.9718,0.2299 -2.5305,0.9493 -3.8571,1.3051 -1.1341,0.3044 -2.7023,-0.722 -4.009,-0.8326 z m -2.9481,-2.9443 c 1.6291,0.3934 3.411,1.0298 4.9564,1.5426 2.1305,0.7072 2.8001,-0.4337 5.082,-0.7988 7.399,-1.1837 13.5068,4.4181 13.6159,11.035 0.0607,3.6799 -1.8244,7.2309 -3.6193,8.7732 -9.0663,7.7896 -21.9138,-0.3991 -19.3308,-11.162 0.4657,-1.9406 1.629,-2.6827 0.8756,-4.6842 -0.5465,-1.4528 -1.23,-3.2312 -1.5798,-4.7058"
           style="fill:#ffffff;fill-opacity:1;fill-rule:evenodd;stroke:none"
           id="path46" /><path
           d="m 495.4742,218.4678 c -0.6653,0.4975 -1.8859,1.2501 -2.961,1.3672 -0.6446,-0.6061 -0.5894,-0.8107 -1.1138,-1.345 -1.5661,0.051 -2.4857,1.025 -3.304,1.8632 -2.4463,2.5061 -0.6047,1.7444 -0.436,3.2723 0.0439,0.3954 -0.4326,1.55 -0.6228,1.9604 -1.0958,2.3678 -3.8585,-0.1822 -2.9843,-2.9866 1.6177,-5.1891 11.1456,-9.8801 11.4219,-4.1315"
           style="fill:#ffffff;fill-opacity:1;fill-rule:evenodd;stroke:none"
           id="path48" /></g><path
         d="m 87.8766,313.5574 h 7.7051 l 5.9973,-26.388 7.3791,26.388 h 6.5154 l 7.5229,-26.388 5.9876,26.388 h 7.7148 l -9.3844,-41.3379 h -7.5228 l -7.619,26.7239 -7.475,-26.7239 h -7.4174 z"
         style="fill:#231f20;fill-opacity:1;fill-rule:nonzero;stroke:none"
         id="path50" /><path
         d="m 162.3095,314.5938 c 5.8439,0 10.8718,-2.1206 15.0747,-6.3524 4.2126,-4.2316 6.3139,-9.3941 6.3139,-15.4778 0,-6.0355 -2.0724,-11.1404 -6.2275,-15.3144 -4.1453,-4.1741 -9.1831,-6.2657 -15.1035,-6.2657 -6.2085,0 -11.361,2.1492 -15.4585,6.4383 -4.1068,4.2894 -6.1602,9.3847 -6.1602,15.2858 0,3.9439 0.9595,7.5807 2.8689,10.9007 1.9094,3.3105 4.5389,5.9397 7.8781,7.878 3.3488,1.9383 6.9568,2.9075 10.8141,2.9075 z m -0.115,-7.7148 c -3.8095,0 -7.0144,-1.3337 -9.6052,-3.9917 -2.6005,-2.6581 -3.8957,-6.0358 -3.8957,-10.1427 0,-4.5674 1.6311,-8.185 4.9031,-10.8431 2.543,-2.0823 5.4504,-3.1184 8.7415,-3.1184 3.7136,0 6.8802,1.353 9.4901,4.0491 2.6198,2.6966 3.9248,6.0168 3.9248,9.97 0,3.9342 -1.3147,7.2638 -3.9534,9.989 -2.6292,2.7252 -5.834,4.0878 -9.6052,4.0878"
         style="fill:#231f20;fill-opacity:1;fill-rule:nonzero;stroke:none"
         id="path52" /><path
         d="m 191.6915,313.5574 h 8.3577 c 4.5677,0 7.8301,-0.4028 9.7684,-1.2186 1.9477,-0.8155 3.5022,-2.1781 4.6826,-4.0685 1.1803,-1.8905 1.775,-4.1261 1.775,-6.717 0,-2.7156 -0.6522,-4.9896 -1.9476,-6.8128 -1.3051,-1.8329 -3.2627,-3.2145 -5.8822,-4.1454 l 9.7588,-18.3756 h -8.5977 l -9.2886,17.5025 h -0.7963 v -17.5025 h -7.8301 z m 7.8301,-16.1781 h 2.4945 c 2.5333,0 4.2701,0.3262 5.2299,0.9884 0.9499,0.6622 1.4296,1.7561 1.4296,3.2913 0,0.902 -0.2399,1.6889 -0.7101,2.3604 -0.47,0.6716 -1.1035,1.1515 -1.8998,1.4395 -0.7869,0.2973 -2.2453,0.4413 -4.3662,0.4413 h -2.1779 z"
         style="fill:#231f20;fill-opacity:1;fill-rule:nonzero;stroke:none"
         id="path54" /><path
         d="m 224.6236,313.5574 h 9.3172 c 6.0069,0 10.4689,-0.7483 13.3954,-2.2359 2.9174,-1.4871 5.3257,-3.905 7.2161,-7.2638 1.8904,-3.3488 2.8304,-7.2638 2.8304,-11.7451 0,-3.1855 -0.5275,-6.112 -1.5831,-8.7797 -1.0554,-2.6677 -2.5237,-4.8844 -4.3852,-6.6498 -1.8615,-1.7561 -3.8767,-2.9747 -6.0452,-3.6561 -2.1685,-0.6716 -5.9301,-1.0075 -11.2844,-1.0075 h -9.4612 z m 7.8301,-7.5996 V 279.877 h 3.6462 c 3.5983,0 6.1988,0.4125 7.8202,1.2379 1.6217,0.8249 2.9458,2.2164 3.9728,4.1644 1.0267,1.9477 1.5449,4.3469 1.5449,7.2062 0,4.3852 -1.2283,7.7916 -3.6752,10.2096 -2.207,2.1784 -5.7574,3.2627 -10.6415,3.2627 z"
         style="fill:#231f20;fill-opacity:1;fill-rule:nonzero;stroke:none"
         id="path56" /><path
         d="m 301.5434,306.22 -3.1008,-2.9336 c -2.2372,2.1906 -4.6877,3.8526 -7.352,4.9847 -2.664,1.1327 -5.2634,1.6988 -7.7975,1.6988 -3.1468,0 -6.1453,-0.7702 -8.9859,-2.3113 -2.8499,-1.541 -5.0592,-3.6295 -6.6186,-6.2751 -1.5689,-2.6365 -2.3488,-5.4213 -2.3488,-8.3639 0,-3.0076 0.8079,-5.8672 2.4228,-8.587 1.6152,-2.7102 3.8526,-4.8362 6.7025,-6.3865 2.8591,-1.5499 5.9783,-2.33 9.3756,-2.33 4.1216,0 7.6122,1.1605 10.4619,3.4718 2.8499,2.3114 4.5394,5.3192 5.0686,9.0046 h -12.7548 v 3.8987 h 17.2661 c -0.0371,-6.1732 -1.8751,-11.084 -5.5139,-14.7135 -3.6482,-3.6294 -8.5128,-5.449 -14.6209,-5.449 -7.4074,0 -13.2743,2.5157 -17.6,7.5563 -3.3233,3.8804 -4.985,8.3639 -4.985,13.46 0,3.7783 0.9561,7.3058 2.859,10.5736 1.9123,3.2584 4.5301,5.811 7.8534,7.649 3.3324,1.8379 7.0923,2.7569 11.2881,2.7569 3.3977,0 6.5999,-0.6125 9.5984,-1.8286 2.9985,-1.2254 5.9318,-3.1748 8.7818,-5.8759"
         style="fill:#231f20;fill-opacity:1;fill-rule:nonzero;stroke:none"
         id="path58" /><path
         d="m 311.6806,312.9222 h 7.9832 c 4.4468,0 7.4634,-0.1859 9.0417,-0.5479 2.3854,-0.5383 4.3166,-1.6988 5.802,-3.49 1.4941,-1.7825 2.2371,-3.9827 2.2371,-6.5912 0,-2.1722 -0.5108,-4.0844 -1.5412,-5.7277 -1.0211,-1.6523 -2.4877,-2.8961 -4.4003,-3.7408 -1.9028,-0.8448 -4.5391,-1.2717 -7.8993,-1.2904 l 14.3978,-18.6029 h -4.9108 l -14.3977,18.6029 h -2.3023 v -18.6029 h -4.0102 z m 4.0102,-3.8991 V 295.433 l 6.9066,-0.0558 c 2.6824,0 4.6599,0.2508 5.9409,0.7614 1.2809,0.5105 2.2838,1.3181 3.0078,2.4321 0.7146,1.1137 1.0766,2.3576 1.0766,3.7409 0,1.3368 -0.362,2.5619 -1.0953,3.6575 -0.7243,1.0956 -1.6804,1.8751 -2.8687,2.3488 -1.1786,0.4731 -3.1467,0.7052 -5.8943,0.7052 z"
         style="fill:#231f20;fill-opacity:1;fill-rule:nonzero;stroke:none"
         id="path60" /><path
         d="m 361.6415,312.9222 18.6588,-39.9909 h -4.2982 l -6.2472,13.1445 h -17.3313 l -6.2102,-13.1445 h -4.456 l 18.8815,39.9909 z m -0.5011,-8.392 -6.8789,-14.5553 h 13.7294 z m 1.7356,19.9211 h 5.8391 l -8.0019,-8.3546 h -3.7502 z"
         style="fill:#231f20;fill-opacity:1;fill-rule:nonzero;stroke:none"
         id="path62" /><path
         d="m 386.4643,312.9222 h 20.0508 v -3.8991 h -16.0407 v -12.5319 h 16.0407 v -3.8988 h -16.0407 v -19.6611 h -4.0101 z"
         style="fill:#231f20;fill-opacity:1;fill-rule:nonzero;stroke:none"
         id="path64" /><path
         d="m 412.9112,312.9222 h 4.0102 v -39.9909 h -4.0102 z"
         style="fill:#231f20;fill-opacity:1;fill-rule:nonzero;stroke:none"
         id="path66" /><path
         d="m 463.3172,305.5422 -3.1561,-2.4228 c -1.736,2.2649 -3.8245,3.9824 -6.266,5.1517 -2.4321,1.1699 -5.1055,1.7547 -8.0297,1.7547 -3.1839,0 -6.1359,-0.7705 -8.856,-2.3021 -2.7199,-1.5318 -4.8178,-3.5926 -6.3125,-6.173 -1.4941,-2.5809 -2.2462,-5.4955 -2.2462,-8.7168 0,-4.8829 1.6711,-8.958 5.0125,-12.2165 3.3421,-3.2674 7.5566,-4.9013 12.6531,-4.9013 5.5972,0 10.2758,2.1909 14.0448,6.5721 l 3.1561,-2.3947 c -1.9956,-2.5345 -4.4833,-4.5023 -7.4634,-5.8856 -2.9798,-1.383 -6.3124,-2.0792 -9.9884,-2.0792 -6.9993,0 -12.5226,2.3301 -16.5606,6.9899 -3.3882,3.9266 -5.087,8.6797 -5.087,14.2402 0,5.8481 2.0514,10.7773 6.1543,14.769 4.1125,4.0009 9.2554,5.9967 15.4377,5.9967 3.7316,0 7.1014,-0.733 10.1089,-2.1999 3.0079,-1.476 5.4771,-3.5368 7.3985,-6.1824"
         style="fill:#231f20;fill-opacity:1;fill-rule:nonzero;stroke:none"
         id="path68" /><path
         d="m 487.7133,312.9222 18.6584,-39.9909 h -4.2978 l -6.2473,13.1445 h -17.3313 l -6.2102,-13.1445 h -4.456 l 18.8815,39.9909 z m -0.5015,-8.392 -6.8785,-14.5553 h 13.7293 z"
         style="fill:#231f20;fill-opacity:1;fill-rule:nonzero;stroke:none"
         id="path70" /><g
         id="g72"><g
           id="g74"><g
             id="g76"
             clip-path="url(#clipPath80)"><path
               d="m 322.7876,413.9167 -0.9728,-4.5902 c -10.9608,-0.0762 -5.1239,-1.021 -11.5464,-2.0046 -3.1586,-0.4839 -9.9051,-0.2336 -13.3875,-0.2396 l -2.3836,-4.1238 c 9.6267,-57.1371 97.918,-93.9263 149.1372,-38.0974 10.7138,11.6779 25.7616,36.3198 22.0099,58.589 l -105.2331,0.1455 -0.0745,-27.8731 66.9359,-0.2041 c -2.0186,-8.5728 -14.2994,-19.4525 -21.7163,-23.5125 -10.6336,-5.8213 -24.6211,-8.3529 -38.7836,-5.315 -12.1685,2.6101 -23.3521,9.9037 -29.1152,16.4339 -13.2086,14.9658 -10.1313,19.9899 -14.87,30.7919"
               style="fill:url(#linearGradient88);fill-rule:evenodd;stroke:none"
               id="path90" /></g></g><path
           d="m 298.5863,389.0962 c 39.6944,-10.5485 76.9082,-26.4739 111.0773,-46.8947 12.179,4.3487 23.8064,11.7686 33.9709,22.8479 10.7138,11.6778 25.7616,36.3197 22.0099,58.589 l -105.2331,0.1454 -0.0745,-27.8731 66.9359,-0.2041 c -2.0186,-8.5728 -14.2994,-19.4525 -21.7163,-23.5125 -10.6336,-5.8212 -24.6211,-8.3529 -38.7836,-5.315 -12.1685,2.6102 -23.3521,9.9037 -29.1152,16.4339 -13.2086,14.9658 -10.1313,19.9899 -14.87,30.7919 l -0.9728,-4.5902 c -10.9608,-0.0762 -5.1239,-1.0207 -11.5464,-2.0046 -3.1586,-0.4839 -9.9051,-0.2336 -13.3875,-0.2393 l -2.3836,-4.1241 c 0.8164,-4.8461 2.2113,-9.5411 4.089,-14.0505"
           style="fill:#6b1db7;fill-opacity:1;fill-rule:nonzero;stroke:none"
           id="path92" /><g
           id="g94"><g
             id="g96"
             clip-path="url(#clipPath100)"><path
               d="m 422.7321,348.0245 c -6.5874,7.8392 -13.2718,15.345 -20.0352,22.5343 0.9771,0.4563 1.9312,0.9388 2.8595,1.4471 7.4169,4.06 19.6977,14.9397 21.7163,23.5125 l -49.8887,0.1522 c -5.633,5.2067 -11.3043,10.2144 -17.0073,15.0114 l 0.0346,12.9136 105.2331,-0.1455 c 3.7517,-22.2692 -11.2961,-46.9111 -22.0099,-58.589 -6.4556,-7.0364 -13.5008,-12.598 -20.9024,-16.8366"
               style="fill:url(#linearGradient108);fill-rule:evenodd;stroke:none"
               id="path110" /></g></g><g
           id="g112"><g
             id="g114"
             clip-path="url(#clipPath118)"><path
               d="m 377.3682,395.6706 c -4.4346,4.0972 -8.8935,8.0671 -13.3728,11.9112 17.2551,0.347 33.7403,-1.6339 46.7255,-6.0684 l 9.3019,-3.8061 c 0.6432,-0.8226 -0.1219,-0.07 0.896,-0.807 0.6763,-0.4896 1.3093,-0.9414 1.9038,-1.3683 z m 48.9889,-2.8202 c 2.6889,-2.2804 4.316,-4.6437 5.8983,-9.8353 0.0975,-0.3198 0.0913,-0.334 0.2044,-0.6143 0.5162,-1.2784 -0.345,0.0476 0.4263,-0.7827 v -4.2749 c -0.7843,-0.8688 0.0896,0.5647 -0.3926,-0.7945 l -1.6696,-6.0061 c -1.2779,0.6052 -0.5071,0.2013 -1.6214,1.0797 -0.4241,0.3342 -0.6429,0.5315 -1.1101,0.889 -1.6965,1.2965 -5.6741,3.9724 -7.4928,4.5691 -0.7835,0.5055 -2.7346,1.4871 -4.8571,2.4143 4.462,4.0317 8.6363,8.8673 10.6146,13.3557"
               style="fill:url(#linearGradient126);fill-rule:evenodd;stroke:none"
               id="path128" /></g></g><g
           id="g130"><g
             id="g132"
             clip-path="url(#clipPath136)"><path
               d="m 374.0814,423.5766 c 4.5918,-3.8557 12.4999,-10.4111 13.6077,-15.0996 l -1.3691,1.0525 c -0.4026,0.3611 -0.5851,0.5797 -1.018,0.9941 -2.9806,2.8531 -1.906,2.0622 -5.9368,4.8234 -4.9369,3.3818 -10.3646,6.0939 -16.1071,8.2446 z"
               style="fill:url(#linearGradient144);fill-rule:evenodd;stroke:none"
               id="path146" /></g></g><g
           id="g148"><g
             id="g150"
             clip-path="url(#clipPath154)"><path
               d="m 363.1467,408.3129 c -0.9224,0.788 -1.8459,1.5709 -2.77,2.3487 l 0.004,1.5109 c 0.1944,-3e-4 0.3889,-0.001 0.5831,-0.004 1.131,-1.1608 1.8694,-2.1858 2.8003,-3.7698 -0.1998,-0.0329 -0.4062,-0.0615 -0.6174,-0.0861"
               style="fill:url(#linearGradient162);fill-rule:evenodd;stroke:none"
               id="path164" /></g></g><g
           id="g166"><g
             id="g168"
             clip-path="url(#clipPath172)"><path
               d="m 405.4757,367.6156 c -0.9205,0.9932 -1.8437,1.9729 -2.7686,2.948 0.9737,0.455 1.9244,0.9357 2.8493,1.4423 0.8947,0.4895 1.8601,1.0791 2.8698,1.7512 1.1484,0.33 2.3463,0.7135 3.8586,1.1163 -0.209,-1.9406 -1.1022,-2.8707 -1.9939,-4.1916 -1.0415,-0.0666 -1.15,-0.6806 -1.9826,-1.6024 -1.1466,-0.5621 -1.9698,-1.0381 -2.8326,-1.4638"
               style="fill:url(#linearGradient180);fill-rule:evenodd;stroke:none"
               id="path182" /></g></g><g
           id="g184"><g
             id="g186"
             clip-path="url(#clipPath190)"><path
               d="m 360.7611,423.595 c 7.4001,-2.4576 14.1259,-5.688 19.4074,-9.8153 1.338,-1.0454 2.0268,-1.6143 3.1093,-2.8788 0.6404,-0.7481 0.9613,-0.9802 1.556,-1.6549 0.9306,-1.0553 0.7344,-0.7829 1.2319,-1.946 -6.8885,0.8201 -14.0122,1.3133 -21.17,0.8 -0.9003,1.9553 -2.4698,4.1037 -4.5091,6.22 l 0.0247,9.2756 z"
               style="fill:url(#linearGradient198);fill-rule:evenodd;stroke:none"
               id="path200" /></g></g><g
           id="g202"><g
             id="g204"
             clip-path="url(#clipPath208)"><path
               d="m 156.6916,350.8064 c 2.7011,2.2969 5.7344,7.4789 8.0118,10.1843 2.613,3.1037 5.0907,6.1226 8.4373,10.093 6.3065,7.4818 12.2789,12.1859 19.6676,18.5953 5.2878,4.5865 3.9691,4.9969 5.8953,12.7579 2.1424,8.6335 9.5901,42.0296 11.4879,45.6752 l 9.8748,-38.3516 20.8437,10.4576 -19.4207,82.9111 -22.2769,-0.0734 -26.8699,-112.3413 c -3.6062,5.296 -18.0683,68.2625 -22.0286,83.5937 -2.3426,9.0669 -4.4223,19.8491 -7.5277,28.7059 l -30.0149,0.003 c 0.3702,-5.2569 28.7464,-101.0736 32.5803,-113.9857 3.52,-11.8553 7.1345,-27.1621 11.34,-38.2246"
               style="fill:url(#linearGradient216);fill-rule:evenodd;stroke:none"
               id="path218" /></g></g><path
           d="m 184.2168,403.6788 c 4.9366,0 9.8473,-0.0817 14.7328,-0.2379 2.4146,9.9462 9.411,41.1537 11.2419,44.6712 l 9.8748,-38.3516 20.8437,10.4576 -19.4207,82.9111 -22.2769,-0.0734 -23.7923,-99.4748 c 2.9304,0.0638 5.8626,0.0978 8.7967,0.0978 z m -42.5409,-2.2317 c 8.7712,0.9147 17.5756,1.5514 26.4019,1.9031 -5.77,20.5356 -14.7691,59.3643 -17.7639,70.958 -2.3426,9.0669 -4.4223,19.8491 -7.5277,28.7059 l -30.0149,0.003 c 0.309,-4.3884 20.1319,-71.8753 28.9046,-101.5696"
           style="fill:#6b1db7;fill-opacity:1;fill-rule:nonzero;stroke:none"
           id="path220" /><g
           id="g222"><g
             id="g224"
             clip-path="url(#clipPath228)"><path
               d="m 224.9331,488.4273 c -9.2245,3.1147 -18.3379,5.7784 -27.3042,8.0079 l 1.5835,6.6206 22.2769,0.0734 z"
               style="fill:url(#linearGradient236);fill-rule:evenodd;stroke:none"
               id="path238" /></g></g><g
           id="g240"><g
             id="g242"
             clip-path="url(#clipPath246)"><path
               d="m 200.154,495.8144 c -0.8416,0.216 -1.6823,0.4283 -2.5214,0.6369 l 1.5798,6.6045 6.5103,0.0215 -0.1304,-0.1136 c -1.1109,-0.9655 -3.3358,-3.8546 -5.4383,-7.1493"
               style="fill:url(#linearGradient254);fill-rule:evenodd;stroke:none"
               id="path256" /></g></g><g
           id="g258"><g
             id="g260"
             clip-path="url(#clipPath264)"><path
               d="m 228.2689,375.7694 c 0.4845,3.6825 13.6939,11.7479 16.7766,15.2493 6.4599,-2.9081 -6.1946,5.7121 2.7283,-2.9775 0.3033,-0.2954 0.5074,-0.4785 0.8062,-0.7577 l 1.855,-1.5738 c 0.2219,13.104 0.485,9.7699 14.5899,18.5558 0.7092,0.4417 1.5755,0.8782 2.6255,1.393 2.0931,1.0256 3.5583,1.6821 5.5074,2.7088 10.6665,5.618 6.9208,5.6781 9.3013,3.8571 2.4837,1.8975 6.1855,3.9574 10.5846,4.6287 4.3628,4.2009 23.4317,10.4113 30.1493,11.1591 2.5427,0.0766 20.5597,4.9195 26.439,5.9176 21.8183,3.7038 43.0458,4.3356 65.12,2.8265 8.5981,-0.588 23.9307,-3.4427 30.4705,-3.066 -5.9525,0.3878 -28.3482,4.9881 -44.2225,6.2388 -46.3606,3.6524 -93.2244,0.9071 -136.3957,-13.661 -34.479,-11.6346 -70.6102,-33.4562 -92.2972,-59.4406 -5.4533,-6.5341 -17.9862,-20.6438 -21.5479,-29.2164 l 40.9561,-0.165 c 1.2107,0.4746 24.3068,33.6357 36.5536,38.3233"
               style="fill:url(#linearGradient272);fill-rule:evenodd;stroke:none"
               id="path274" /></g></g><path
           d="m 214.814,402.6535 c 13.4733,-0.9037 26.7398,-2.3964 39.7797,-4.4569 2.1353,1.3453 5.4034,2.9369 10.4312,6.0689 0.7092,0.4417 1.5755,0.8782 2.6255,1.393 2.0931,1.0256 3.5583,1.6821 5.5074,2.7088 10.6665,5.618 6.9208,5.6781 9.3013,3.8571 2.4837,1.8975 6.1855,3.9574 10.5846,4.6287 4.3628,4.2009 23.4317,10.4113 30.1493,11.1591 2.5427,0.0766 20.5597,4.9195 26.439,5.9176 21.8183,3.7038 43.0458,4.3356 65.12,2.8265 8.5981,-0.588 23.9307,-3.4427 30.4705,-3.066 -5.9525,0.3878 -28.3482,4.9881 -44.2225,6.2388 -46.3606,3.6524 -93.2244,0.9071 -136.3957,-13.661 C 247.7769,420.59 230.557,412.4843 214.814,402.6535"
           style="fill:#6b1db7;fill-opacity:1;fill-rule:nonzero;stroke:none"
           id="path276" /><g
           id="g278"><g
             id="g280"
             clip-path="url(#clipPath284)"><path
               d="m 334.9797,430.5815 c -3.9872,2.9095 -7.9806,5.7436 -11.9809,8.4683 25.6612,2.9639 51.9109,2.9347 78.0012,0.8793 15.8743,-1.2507 38.27,-5.851 44.2225,-6.2388 -6.5398,-0.3767 -21.8724,2.478 -30.4705,3.066 -22.0742,1.5091 -43.3017,0.8773 -65.12,-2.8265 -2.9716,-0.5045 -9.0442,-1.991 -14.6523,-3.3483"
               style="fill:url(#linearGradient292);fill-rule:evenodd;stroke:none"
               id="path294" /></g></g><g
           id="g296"><g
             id="g298"
             clip-path="url(#clipPath302)"><path
               d="m 334.9868,430.5832 c -3.9892,2.9121 -7.986,5.7359 -11.988,8.4666 6.5934,0.7613 13.2256,1.3243 19.8839,1.707 5.6872,-1.9636 10.1826,-4.2902 13.2296,-5.8144 -2.1552,-0.3082 -4.3149,-0.6449 -6.4803,-1.0126 -2.9704,-0.5043 -9.0391,-1.9899 -14.6452,-3.3466"
               style="fill:url(#linearGradient310);fill-rule:evenodd;stroke:none"
               id="path312" /></g></g><g
           id="g314"><g
             id="g316"
             clip-path="url(#clipPath320)"><path
               d="m 293.9471,437.5304 31.2996,5.3144 c 8.2343,17.8259 17.7738,32.5383 41.2078,37.4261 25.7646,5.3734 44.0498,-6.2104 55.3008,-21.1768 l 36.2118,-0.5635 c -19.158,50.7574 -91.679,70.7323 -140.0097,26.8265 -7.5663,-6.8734 -25.0367,-30.3375 -24.0103,-47.8267"
               style="fill:url(#linearGradient328);fill-rule:evenodd;stroke:none"
               id="path330" /></g></g><path
           d="m 293.9471,437.5304 31.2996,5.3144 c 8.2343,17.8259 17.7738,32.5383 41.2078,37.4261 25.7646,5.3734 44.0498,-6.2104 55.3008,-21.1768 l 36.2118,-0.5635 c -19.158,50.7574 -91.679,70.7323 -140.0097,26.8265 -7.5663,-6.8734 -25.0367,-30.3375 -24.0103,-47.8267"
           style="fill:#6b1db7;fill-opacity:1;fill-rule:nonzero;stroke:none"
           id="path332" /><g
           id="g334"><g
             id="g336"
             clip-path="url(#clipPath340)"><path
               d="m 318.926,441.7716 c -7.1065,4.7262 -14.2243,9.1757 -21.3398,13.3353 5.3467,13.0334 15.1852,25.539 20.3712,30.2502 48.3307,43.9058 120.8517,23.9309 140.0097,-26.8265 l -36.2118,0.5635 c -11.251,14.9664 -29.5362,26.5502 -55.3008,21.1768 -23.434,-4.8878 -32.9735,-19.6002 -41.2078,-37.4261 z"
               style="fill:url(#linearGradient348);fill-rule:evenodd;stroke:none"
               id="path350" /></g></g><g
           id="g352"><g
             id="g354"
             clip-path="url(#clipPath358)"><path
               d="m 318.9546,441.7764 c -1.3909,0.9264 -2.7825,1.8414 -4.1743,2.7445 2.6428,-0.0178 5.5996,-0.047 9.0848,-0.1579 0.6888,-0.0218 1.3694,-0.0564 2.0429,-0.1009 -0.2214,-0.4705 -0.4419,-0.9425 -0.6613,-1.4173 z"
               style="fill:url(#linearGradient366);fill-rule:evenodd;stroke:none"
               id="path368" /></g></g><g
           id="g370"><g
             id="g372"
             clip-path="url(#clipPath376)"><path
               d="m 258.6061,427.8705 30.4379,8.941 19.0613,65.9685 -30.3355,0.2395 z"
               style="fill:url(#linearGradient384);fill-rule:evenodd;stroke:none"
               id="path386" /></g></g><path
           d="m 258.6061,427.8705 30.4379,8.941 19.0613,65.9685 -30.3355,0.2395 z"
           style="fill:#6b1db7;fill-opacity:1;fill-rule:nonzero;stroke:none"
           id="path388" /><g
           id="g390"><g
             id="g392"
             clip-path="url(#clipPath396)"><path
               d="m 294.7946,456.7139 c -8.4852,4.8733 -16.9613,9.3622 -25.4015,13.4566 l 8.3767,32.849 30.3355,-0.2395 z"
               style="fill:url(#linearGradient404);fill-rule:evenodd;stroke:none"
               id="path406" /></g></g><g
           id="g408"><g
             id="g410"
             clip-path="url(#clipPath414)"><path
               d="m 228.2689,375.7694 c 0.43,-5.0114 2.7754,-12.4237 3.7914,-16.9208 l 13.7264,5.7237 c 11.9073,3.3514 8.7605,0.2389 16.604,2.2048 1.3467,0.3376 2.0469,1.1951 3.2119,0.0246 1.2728,-1.2778 0.007,0.0125 1.046,-1.8391 l 1.5324,-2.7258 c 1.9494,4.7716 14.2591,46.1772 14.2781,49.9876 -2.3805,1.821 1.3652,1.7609 -9.3013,-3.8571 -1.9491,-1.0267 -3.4143,-1.6832 -5.5074,-2.7088 -1.05,-0.5148 -1.9163,-0.9513 -2.6255,-1.393 -14.1049,-8.7859 -14.368,-5.4518 -14.5899,-18.5558 l -1.855,1.5738 c -0.2988,0.2792 -0.5029,0.4623 -0.8062,0.7577 -8.9229,8.6896 3.7316,0.0694 -2.7283,2.9775 -3.0827,-3.5014 -16.2921,-11.5668 -16.7766,-15.2493"
               style="fill:url(#linearGradient422);fill-rule:evenodd;stroke:none"
               id="path424" /></g></g><path
           d="m 254.4681,398.3221 c 7.835,-1.2384 15.5883,-2.681 23.2566,-4.3208 2.5549,9.0091 4.6012,16.797 4.6088,18.3487 -2.3805,1.8209 1.3652,1.7608 -9.3013,-3.8571 -1.9491,-1.0268 -3.414,-1.6835 -5.5071,-2.7091 -1.05,-0.5145 -1.9165,-0.951 -2.6258,-1.393 -5.0278,-3.1317 -8.2958,-4.7233 -10.4312,-6.0687"
           style="fill:#6b1db7;fill-opacity:1;fill-rule:nonzero;stroke:none"
           id="path426" /><g
           id="g428"><g
             id="g430"
             clip-path="url(#clipPath434)"><path
               d="m 232.0603,358.9112 5.0363,-21.4721 24.1832,0.0717 6.9012,24.7889 -1.5324,2.7256 c -1.0386,1.8516 0.2268,0.5615 -1.046,1.8394 -1.165,1.1701 -1.8652,0.3129 -3.2119,-0.0247 -7.8435,-1.9658 -4.6967,1.1463 -16.604,-2.2051 z"
               style="fill:url(#linearGradient442);fill-rule:evenodd;stroke:none"
               id="path444" /></g></g><g
           id="g446"><g
             id="g448"
             clip-path="url(#clipPath452)"><path
               d="m 293.0437,416.8531 1.4536,-13.8946 2.3836,4.1238 c 3.4824,0.006 10.2289,-0.2443 13.3875,0.2396 6.4225,0.9836 0.5856,1.9284 11.5464,2.0046 l 0.9728,4.5902 0.4054,14.0955 c -6.7176,-0.7478 -25.7865,-6.9582 -30.1493,-11.1591"
               style="fill:url(#linearGradient460);fill-rule:evenodd;stroke:none"
               id="path462" /></g></g><path
           d="m 293.0437,416.8531 1.4536,-13.8946 2.3836,4.1238 c 3.4824,0.006 10.2289,-0.2443 13.3875,0.2396 6.4225,0.9836 0.5856,1.9284 11.5464,2.0046 0.3243,1.5299 0.212,2.9013 0.9728,4.5902 0.0703,2.4414 0.1406,4.8829 0.2106,7.3244 l 0.1948,6.7711 c -6.7176,-0.7478 -25.7865,-6.9582 -30.1493,-11.1591"
           style="fill:#6b1db7;fill-opacity:1;fill-rule:nonzero;stroke:none"
           id="path464" /></g></g></g></svg>
